<svg xmlns="http://www.w3.org/2000/svg" width="160" height="56" viewBox="0 0 160 56" fill="none"><g opacity="0.75"><path d="M42.0655 47.9988H25.0945L31.5131 17.8843H48.5048L47.3832 23.1163H36.7477L35.356 29.7285H45.2644L44.1218 34.96H34.2135L32.5517 42.7257H43.1871L42.0655 47.9988ZM65.8497 22.725C64.0218 22.725 62.3738 23.2811 60.9059 24.3933C59.4519 25.5057 58.2816 27.1469 57.3954 29.3162C56.5091 31.4723 56.066 33.7931 56.066 36.2783C56.066 38.5715 56.5368 40.2748 57.4784 41.3869C58.434 42.4991 59.9503 43.0554 62.0276 43.0554C64.0494 43.0554 66.3897 42.5263 69.0486 41.4691V46.8245C66.2928 47.8824 63.5232 48.4106 60.7398 48.4106C57.2224 48.4106 54.4872 47.3877 52.5347 45.3417C50.5821 43.282 49.6058 40.3707 49.6058 36.6078C49.6058 33.0105 50.3259 29.7006 51.766 26.6796C53.2063 23.645 55.1312 21.3449 57.5409 19.7795C59.9504 18.2002 62.72 17.4106 65.8497 17.4106C67.5807 17.4106 69.1178 17.5686 70.4612 17.8843C71.8044 18.1864 73.2447 18.7495 74.7818 19.5735L72.3307 24.723C70.8628 23.9128 69.6511 23.3771 68.6955 23.1163C67.74 22.8553 66.7913 22.725 65.8497 22.725ZM96.8005 47.9988H89.7795L85.3966 35.8048L82.8 37.2464L80.5357 47.9988H74.2002L80.6187 17.8843H86.975L83.8178 32.3441L87.1 28.1218L95.5954 17.8843H103.094L90.7559 32.3028L96.8005 47.9988Z" fill="#2D2D2D"></path><path d="M125.851 34.2651C125.872 29.6429 124.02 25.2333 120.637 21.8474C117.253 18.4614 112.825 16.5859 108.166 16.5676L108.147 20.9614C111.624 20.9762 114.942 22.3872 117.493 24.9399C120.042 27.4942 121.438 30.7971 121.423 34.2463L125.851 34.2651Z" fill="#DE4313"></path><path d="M134.905 33.9172C134.968 19.7087 122.917 7.64877 108.597 7.58936L108.578 11.9832C120.501 12.034 130.528 22.0685 130.477 33.8983L134.905 33.9172Z" fill="#9708CC"></path><path d="M108.055 34.224C109.777 35.9475 112.581 35.9594 114.319 34.2506C116.056 32.5419 116.068 29.7594 114.346 28.0359C112.623 26.3124 109.819 26.3004 108.082 28.0092C106.345 29.718 106.333 32.5004 108.055 34.224Z" fill="#9708CC"></path></g></svg>