<svg width="160" height="56" viewBox="0 0 160 56" fill="none" xmlns="http://www.w3.org/2000/svg">
<path opacity="0.95" d="M30 56C45.464 56 58 43.464 58 28C58 12.536 45.464 0 30 0C14.536 0 2 12.536 2 28C2 43.464 14.536 56 30 56Z" fill="url(#paint0_linear_176_239)"/>
<path opacity="0.9" d="M39.2 10.3999C50.6667 10.3999 56.4 16.1332 56.4 27.5999C56.4 39.0666 50.6667 44.7999 39.2 44.7999C27.7333 44.7999 22 39.0666 22 27.5999C22 16.1332 27.7333 10.3999 39.2 10.3999Z" stroke="white" stroke-width="2.4"/>
<path opacity="0.95" d="M39.2001 16C46.9334 16 50.8001 19.8667 50.8001 27.6C50.8001 35.3333 46.9334 39.2 39.2001 39.2C31.4668 39.2 27.6001 35.3333 27.6001 27.6C27.6001 19.8667 31.4668 16 39.2001 16Z" stroke="white" stroke-width="2"/>
<path d="M39.1999 34.4C42.9554 34.4 45.9999 31.3556 45.9999 27.6C45.9999 23.8445 42.9554 20.8 39.1999 20.8C35.4444 20.8 32.3999 23.8445 32.3999 27.6C32.3999 31.3556 35.4444 34.4 39.1999 34.4Z" fill="white"/>
<path d="M39.2001 31.2C41.1883 31.2 42.8001 29.5882 42.8001 27.6C42.8001 25.6118 41.1883 24 39.2001 24C37.2119 24 35.6001 25.6118 35.6001 27.6C35.6001 29.5882 37.2119 31.2 39.2001 31.2Z" fill="#EB2525"/>
<path d="M9.6 31.2C11.5882 31.2 13.2 29.5882 13.2 27.6C13.2 25.6118 11.5882 24 9.6 24C7.61177 24 6 25.6118 6 27.6C6 29.5882 7.61177 31.2 9.6 31.2Z" fill="white"/>
<path d="M84.6191 38.1084C84.6191 38.6455 84.2041 38.9824 83.374 39.1191C81.9678 39.3535 80.1416 39.4707 77.8955 39.4707H76.3721C74.5068 39.4707 73.3496 39.2461 72.9004 38.7969C72.4512 38.3477 72.2266 37.3125 72.2266 35.6914V34.168C72.2266 32.4785 72.2998 30.6035 72.4463 28.543C72.6025 26.4824 72.6807 24.5635 72.6807 22.7861C72.6807 20.999 72.9297 19.9492 73.4277 19.6367C74.3555 19.0605 76.4844 18.7725 79.8145 18.7725H81.2793C82.373 18.7725 83.1494 18.8408 83.6084 18.9775C84.0674 19.1143 84.2969 19.4072 84.2969 19.8564C84.2969 20.374 83.9355 20.7305 83.2129 20.9258C82.5 21.1113 81.3379 21.2432 79.7266 21.3213C78.1152 21.3994 77.1094 21.5898 76.709 21.8926C76.0742 22.3809 75.7568 23.5625 75.7568 25.4375C75.7568 26.2871 75.9814 26.8047 76.4307 26.9902C76.8799 27.1758 77.9346 27.3223 79.5947 27.4297C81.2549 27.5371 82.0898 27.5908 82.0996 27.5908C82.6172 27.7178 82.876 28.084 82.876 28.6895C82.876 29.2852 82.583 29.666 81.9971 29.832C81.8408 29.8809 80.9082 29.9688 79.1992 30.0957C77.5 30.2227 76.4746 30.3838 76.123 30.5791C75.625 30.8525 75.376 31.5996 75.376 32.8203C75.376 34.7734 75.6787 35.999 76.2842 36.4971C76.6162 36.7705 77.7881 36.9072 79.7998 36.9072L82.1143 36.8779C83.7842 36.8779 84.6191 37.2881 84.6191 38.1084ZM93.4668 37.2588C94.1211 37.2588 94.7363 37.0928 95.3125 36.7607C95.8984 36.4189 96.3525 35.9014 96.6748 35.208C97.0068 34.5146 97.2607 33.0107 97.4365 30.6963C97.6221 28.3818 97.7441 27.1025 97.8027 26.8584C97.9688 26.0967 98.3496 25.7158 98.9453 25.7158C99.5508 25.7158 99.9316 25.9453 100.088 26.4043C100.244 26.8535 100.322 27.7227 100.322 29.0117C100.322 30.3008 100.376 31.5947 100.483 32.8936C100.601 34.1826 100.659 35.2275 100.659 36.0283L100.688 36.6875C100.688 37.5176 100.552 38.084 100.278 38.3867C100.015 38.6797 99.6631 38.8262 99.2236 38.8262C98.7939 38.8262 98.3887 38.7139 98.0078 38.4893C97.627 38.2646 97.3535 38.1523 97.1875 38.1523C97.0215 38.1523 96.7139 38.2451 96.2646 38.4307C95.8252 38.6162 95.376 38.792 94.917 38.958C94.4678 39.1143 93.8623 39.1924 93.1006 39.1924H92.749C91.1865 39.1924 90.0293 38.6602 89.2773 37.5957C88.5254 36.5312 88.1494 34.7148 88.1494 32.1465V30.6084L88.1641 30.2275V29.4805C88.1641 27.332 88.2178 26.126 88.3252 25.8623C88.4814 25.4717 88.8867 25.2764 89.541 25.2764C90.2051 25.2764 90.6641 25.6719 90.918 26.4629C91.0156 26.7656 91.0645 28.25 91.0645 30.916C91.0645 33.582 91.1816 35.2031 91.416 35.7793C91.8164 36.7656 92.5 37.2588 93.4668 37.2588ZM115.513 36.9219C116.626 36.9219 117.183 37.3369 117.183 38.167V38.4453C117.183 38.8945 116.982 39.1826 116.582 39.3096C116.182 39.4365 115.454 39.5 114.399 39.5H111.382L111.045 39.4854C107.754 39.4854 105.884 39.334 105.435 39.0312C104.985 38.7285 104.761 37.6396 104.761 35.7646V33.4502L104.775 33.1133L104.805 31.4434V28.7627L104.819 28.1035V26.4775L104.805 25.5107C104.805 25.1885 104.805 24.8662 104.805 24.5439L104.79 23.5771V22.625L104.761 20.7061C104.761 19.9053 104.829 19.4023 104.966 19.1973C105.112 18.9824 105.444 18.875 105.962 18.875C106.479 18.875 106.875 18.958 107.148 19.124C107.422 19.2803 107.607 19.5977 107.705 20.0762C107.812 20.5547 107.866 23.1621 107.866 27.8984C107.866 32.6348 108.037 35.3545 108.379 36.0576C108.564 36.4385 108.975 36.6875 109.609 36.8047C110.254 36.9219 111.289 36.9805 112.715 36.9805L113.667 36.9658C113.882 36.9561 114.092 36.9512 114.297 36.9512L114.912 36.9219H115.513ZM123.496 20.7354C123.496 21.751 122.92 22.2588 121.768 22.2588H121.65L121.592 22.2441L121.152 22.2002C121.113 22.1904 121.079 22.1855 121.05 22.1855C120.415 22.1855 120.098 21.751 120.098 20.8818V20.6035C120.098 20.0664 120.22 19.6758 120.464 19.4316C120.708 19.1875 121.011 19.0654 121.372 19.0654L121.709 19.0215H122.046L122.544 19.0947C123.149 19.0947 123.452 19.4365 123.452 20.1201L123.496 20.457V20.7354ZM123.013 32.7471L123.628 37.2441V37.5664L123.613 37.7129C123.613 38.3477 123.481 38.7969 123.218 39.0605C122.954 39.3242 122.441 39.4561 121.68 39.4561H121.504C120.82 39.4561 120.386 39.085 120.2 38.3428C120.103 37.9619 120.054 36.4922 120.054 33.9336V27.6641L119.98 26.6826V26.3604C119.98 25.8818 120.068 25.5498 120.244 25.3643C120.42 25.1787 120.698 25.0859 121.079 25.0859H121.577C122.271 25.0859 122.695 25.335 122.852 25.833C122.92 26.0479 122.954 26.8486 122.954 28.2354V31.3994L122.998 32.2783C123.008 32.3955 123.013 32.5518 123.013 32.7471ZM127.905 26.917C128.013 26.1357 128.315 25.7451 128.813 25.7451C129.312 25.7451 129.766 25.9111 130.176 26.2432C130.586 26.5752 130.85 26.7412 130.967 26.7412C131.084 26.7412 131.401 26.5996 131.919 26.3164C132.446 26.0234 132.773 25.8477 132.9 25.7891C133.691 25.4375 134.487 25.2617 135.288 25.2617C136.772 25.2617 137.871 25.7549 138.584 26.7412C139.307 27.7275 139.668 29.5146 139.668 32.1025C139.668 32.6299 139.736 33.7285 139.873 35.3984C140.02 37.0586 140.093 37.9131 140.093 37.9619C140.093 38.5967 139.727 38.9141 138.994 38.9141C138.262 38.9141 137.773 38.5088 137.529 37.6982C137.295 36.8877 137.085 35.3496 136.899 33.084C136.724 30.8086 136.523 29.4072 136.299 28.8799C135.879 27.8838 135.112 27.3857 133.999 27.3857C133.442 27.3857 132.91 27.5469 132.402 27.8691C131.904 28.1914 131.509 28.665 131.216 29.29C130.933 29.915 130.698 31.3945 130.513 33.7285C130.337 36.0625 130.195 37.4297 130.088 37.8301C129.98 38.2305 129.81 38.5381 129.575 38.7529C129.351 38.958 129.033 39.0605 128.623 39.0605C128.223 39.0605 127.939 38.9678 127.773 38.7822C127.617 38.5869 127.539 38.1768 127.539 37.5518V37.1855L127.554 36.8047L127.598 34.9004C127.598 34.6465 127.598 34.3926 127.598 34.1387L127.627 32.9961C127.627 30.3496 127.72 28.3232 127.905 26.917ZM145.059 18.1572H145.41C146.104 18.1572 146.548 18.5723 146.743 19.4023C146.88 19.9688 146.948 21.7949 146.948 24.8809C146.948 27.957 147.109 29.4951 147.432 29.4951C147.764 29.4951 148.657 28.7871 150.112 27.3711C151.577 25.9453 152.7 25.2324 153.481 25.2324C154.263 25.2324 154.653 25.3984 154.653 25.7305C154.653 25.8184 154.092 26.6777 152.969 28.3086C151.846 29.9395 151.284 30.9648 151.284 31.3848C151.284 31.8047 151.992 33.0205 153.408 35.0322C154.824 37.0342 155.532 38.1963 155.532 38.5186C155.532 38.8311 155.317 38.9873 154.888 38.9873C154.155 38.9873 153.555 38.7871 153.086 38.3867C152.627 37.9766 151.865 36.9561 150.801 35.3252C149.736 33.6943 148.95 32.8789 148.442 32.8789C147.935 32.8789 147.544 33.333 147.271 34.2412C147.173 34.5537 147.07 35.1836 146.963 36.1309C146.865 37.0684 146.694 37.7568 146.45 38.1963C146.216 38.6357 145.801 38.8555 145.205 38.8555C144.609 38.8555 144.253 38.5918 144.136 38.0645C143.931 37.1367 143.828 35.7744 143.828 33.9775V32.1611L143.843 31.707C143.843 31.248 143.843 30.7891 143.843 30.3301L143.857 29.3926L143.901 27.5322L143.96 23.4014C143.96 20.6377 143.989 19.1484 144.048 18.9336C144.185 18.416 144.521 18.1572 145.059 18.1572Z" fill="#EB2525"/>
<defs>
<linearGradient id="paint0_linear_176_239" x1="2" y1="0" x2="58" y2="0" gradientUnits="userSpaceOnUse">
<stop stop-color="#EB2528"/>
<stop offset="1" stop-color="#EDC93A"/>
</linearGradient>
</defs>
</svg>
