<svg width="160" height="56" viewBox="0 0 160 56" fill="none" xmlns="http://www.w3.org/2000/svg">
<path d="M31.5841 17.0074C31.6811 16.9963 31.7783 16.9869 31.8755 16.9793C33.0865 16.8826 39.1102 17.0509 39.4735 19.0735C39.5881 19.7118 37.4704 22.3754 36.7649 22.5516C35.8557 22.6729 34.7195 22.1923 33.8372 22.1379C27.9017 21.7722 22.2221 23.8976 18.2268 28.2047C18.3935 28.3817 18.5637 28.5554 18.737 28.7258C22.3996 32.3149 28.0183 34.0463 33.1059 34.0001C34.3642 33.9887 35.6137 33.4557 36.8521 33.3821C37.3032 33.3553 37.7177 33.7932 38.0189 34.0964C39.1664 35.5498 41.7121 37.3187 38.4026 38.3575C30.304 40.8994 18.7485 36.8 15.9468 28.3206C16.4181 26.4595 17.3099 24.7313 18.5536 23.2689C21.8197 19.3668 26.6041 17.454 31.5841 17.0074Z" fill="#10BFC0"/>
<path d="M120.407 18.7375C124.778 18.2974 128.681 21.4752 129.138 25.8449C129.594 30.2144 126.432 34.1302 122.065 34.6037C117.675 35.0798 113.733 31.8966 113.274 27.5031C112.815 23.1099 116.013 19.1802 120.407 18.7375ZM124.972 23.6945C123.901 22.3441 122.184 21.6744 120.481 21.9406C117.887 22.3458 116.101 24.7643 116.478 27.3635C116.855 29.9625 119.254 31.7743 121.856 31.426C123.565 31.1972 125.019 30.0673 125.664 28.468C126.309 26.8684 126.045 25.0451 124.972 23.6945Z" fill="#2B2B2B"/>
<path d="M58.8683 13.2814C63.8383 13.2434 68.8084 13.2419 73.7784 13.2768L73.7741 16.4035L62.2528 16.4202C62.2167 18.2702 62.2496 20.2293 62.2497 22.0881L72.5064 22.0904L72.5031 25.249C69.362 25.2734 66.2207 25.2792 63.0795 25.2662C62.7927 25.2586 62.5093 25.2123 62.2968 25.3951C62.1615 26.1991 62.2419 30.0427 62.2451 31.0184L74.0329 31.0186C74.0302 32.0832 74.0218 33.1477 74.0076 34.2122L58.8538 34.2169L58.8683 13.2814Z" fill="#2B2B2B"/>
<path d="M33.1233 6.25175C34.6439 6.09358 37.8895 6.40168 39.4688 6.76346C41.2616 7.2302 44.3986 7.85055 45.6602 9.22742C46.6089 10.2629 44.0668 12.5109 43.2636 13.0571C42.3548 13.6752 40.0964 12.602 39.0258 12.3428C33.1552 10.9718 26.9811 11.9608 21.8321 15.0969C19.1284 16.8145 17.2293 18.601 15.4379 21.2325C15.1208 21.6982 14.7295 22.1128 14.1592 21.7586C14.0858 21.6305 13.995 21.4314 14.0002 21.2878C14.1 18.5292 15.8808 15.2958 17.6028 13.3336C21.8053 8.54456 26.9786 6.70463 33.1233 6.25175Z" fill="#06549C"/>
<path d="M16.0925 36.0291C16.9651 36.1063 17.9125 37.3781 18.5537 38.0313C19.3841 38.8686 20.2804 39.6379 21.2338 40.3319C26.6371 44.2812 34.627 45.5082 40.964 43.3502C42.8837 42.743 43.9997 41.5612 45.5679 43.5608C46.5023 44.7522 48.3805 45.7891 46.2926 47.1098C38.0132 51.0792 27.2354 50.9931 20.2388 44.4599C18.1823 42.5394 16.1522 39.6473 15.7171 36.8073C15.6596 36.4318 15.8644 36.267 16.0925 36.0291Z" fill="#06549C"/>
<path d="M139.459 18.746C139.575 18.7339 139.693 18.7275 139.81 18.7269C141.435 18.7182 142.989 19.1992 144.152 20.3685C144.945 21.1802 145.499 22.1943 145.755 23.2999C146.092 24.6975 145.987 27.0102 145.976 28.5014L145.952 34.211L142.759 34.2109C142.755 32.0773 143.062 25.5624 142.441 23.9092C142.137 23.0989 141.568 22.3955 140.765 22.0427C139.669 21.5615 138.397 21.7754 137.321 22.1927C134.863 23.6135 135.38 25.8618 135.382 28.3508L135.383 34.216L132.091 34.2164C132.159 29.2396 132.099 24.1085 132.103 19.1154L135.348 19.1111L135.366 21.0469C136.59 19.597 137.563 18.9899 139.459 18.746Z" fill="#2B2B2B"/>
<path d="M77.3506 19.1003L80.5504 19.1142C80.5572 21.1007 80.5485 23.0871 80.5262 25.0735C80.5165 26.9053 80.2607 29.0852 81.5649 30.5443C82.7973 31.9227 85.3107 31.9563 86.6401 30.7168C87.1575 30.2295 87.517 29.5978 87.671 28.9038C87.7941 28.3577 87.796 27.8591 87.8009 27.3055C87.8232 24.584 87.6836 21.8324 87.7922 19.1141L91.039 19.1022L91.04 24.126C91.1088 27.4111 91.0448 30.9135 91.0284 34.2105L87.8125 34.2147L87.8057 32.2814C86.6488 33.7539 85.4221 34.5818 83.4833 34.5758C81.841 34.5708 80.2965 34.057 79.1224 32.8792C78.3554 32.1126 77.8143 31.1495 77.5585 30.0956C77.1805 28.5746 77.3428 21.1796 77.3506 19.1003Z" fill="#2B2B2B"/>
<path d="M102.313 18.8409C102.723 18.7923 103.379 18.8845 103.809 18.9294L103.802 22.1008C103.521 22.0802 103.24 22.0687 102.958 22.0666C101.589 22.066 100.368 22.3272 99.3725 23.3357C98.8387 23.8846 98.4598 24.5659 98.2757 25.3095C97.9405 26.6258 98.081 32.5407 98.0878 34.211C97.3901 34.2072 95.5656 34.3774 94.9465 34.0848C94.898 34.0619 94.8932 33.755 94.8855 33.6616L94.8787 19.1137L98.081 19.1117L98.0858 21.6461C98.2321 21.3913 98.3959 21.1467 98.5751 20.9137C99.6022 19.5808 100.679 19.0564 102.313 18.8409Z" fill="#2B2B2B"/>
<path d="M106.715 19.1038C107.766 19.1261 108.883 19.1074 109.939 19.1078L109.929 34.2148L106.72 34.2153L106.715 19.1038Z" fill="#2B2B2B"/>
<path d="M126.53 40.7846C128.49 40.3752 130.412 41.6215 130.839 43.5776C131.266 45.5337 130.036 47.4687 128.084 47.9125C126.108 48.3617 124.144 47.1128 123.713 45.1323C123.281 43.1517 124.546 41.1992 126.53 40.7846ZM129.508 43.7055C129.155 42.4766 127.87 41.7692 126.643 42.1284C125.424 42.4853 124.723 43.761 125.074 44.9819C125.425 46.2027 126.697 46.9103 127.918 46.5649C129.149 46.2171 129.862 44.9345 129.508 43.7055Z" fill="#10BFC0"/>
<path d="M139.849 40.887C140.525 42.0536 141.331 43.2983 142.038 44.4619L144.289 40.8981L145.737 40.8999C145.752 43.1947 145.753 45.4896 145.74 47.7845L144.399 47.7924L144.396 44.7349L144.398 43.0778C143.656 44.2309 142.836 45.5752 142.042 46.6746C141.404 45.8581 140.324 44.0292 139.73 43.0865C139.747 44.6533 139.747 46.2201 139.73 47.7868L138.385 47.7932C138.413 45.5112 138.388 43.1823 138.388 40.8967L139.849 40.887Z" fill="#10BFC0"/>
<path d="M96.8147 40.9005L102.128 40.8984L102.116 42.1161C100.808 42.1088 99.4996 42.1119 98.1915 42.1255L98.1809 43.7017L101.593 43.694L101.592 44.8963L98.5423 44.9022C98.3437 44.9063 98.4221 44.8866 98.2371 45.0115C98.116 45.43 98.1654 46.0998 98.177 46.5558C99.4821 46.5244 100.821 46.5834 102.159 46.5536L102.161 47.7854L96.8234 47.7938L96.8147 40.9005Z" fill="#10BFC0"/>
<path d="M71.4512 40.8921L76.6984 40.9001L76.6943 42.1012C75.4091 42.1219 74.1237 42.1153 72.8387 42.0816L72.8537 43.6936L76.1894 43.6932L76.1987 44.9222C75.1939 44.894 74.1029 44.915 73.0915 44.9151L72.9236 44.9886C72.8228 45.2977 72.8568 46.1786 72.8581 46.5501C74.1457 46.5379 75.4616 46.5512 76.7511 46.5521L76.7574 47.7707C74.9927 47.7969 73.2277 47.8066 71.4627 47.8L71.4512 40.8921Z" fill="#10BFC0"/>
<path d="M112.687 40.828C112.757 40.8214 112.828 40.8167 112.9 40.8141C114.414 40.7591 115.117 40.9626 116.213 41.9903L115.356 42.9188C113.937 41.6518 111.909 41.5333 111.3 43.6261C111.114 44.287 111.2 44.9951 111.541 45.5914C112.332 47.0006 113.754 46.8878 114.969 46.1703C115.133 46.0038 115.182 45.9726 115.373 45.8489C115.802 45.9618 116.061 46.3491 116.387 46.701C115.041 47.8123 113.366 48.3883 111.711 47.5404C110.853 47.1067 110.204 46.3478 109.909 45.4327C109.613 44.525 109.694 43.5364 110.133 42.6891C110.716 41.5836 111.56 41.1736 112.687 40.828Z" fill="#10BFC0"/>
<path d="M30.5849 29.9761C30.1008 29.6154 29.7824 29.0748 29.7018 28.4765C29.517 27.0215 30.9155 25.9232 32.2924 26.27C36.0688 27.2211 32.8895 31.6956 30.5849 29.9761Z" fill="#06549C"/>
<path d="M58.533 40.8918L64.2505 40.9115C64.2536 41.2917 64.2344 41.719 64.2258 42.1031C63.5036 42.1207 62.7713 42.1248 62.048 42.1343L62.0397 45.5024L62.0363 47.7861L60.7037 47.7956C60.6731 45.9206 60.6957 43.9841 60.6939 42.1043L58.5444 42.128L58.533 40.8918Z" fill="#10BFC0"/>
<path d="M84.4434 40.8949L85.8018 40.8938C85.8454 42.725 85.8086 44.7014 85.8086 46.5439L89.4769 46.5339C89.4915 47.007 89.5099 47.314 89.442 47.7834L84.456 47.7963C84.5034 45.5571 84.4511 43.147 84.4434 40.8949Z" fill="#10BFC0"/>
<path d="M108.27 12.8852C109.37 12.8624 110.283 13.7284 110.319 14.8275C110.355 15.9267 109.5 16.8503 108.401 16.8992C107.679 16.9314 106.995 16.5727 106.612 15.96C106.227 15.3474 106.202 14.5755 106.545 13.9391C106.889 13.3027 107.548 12.9001 108.27 12.8852Z" fill="#2B2B2B"/>
</svg>
