<svg width="160" height="56" viewBox="0 0 160 56" fill="none" xmlns="http://www.w3.org/2000/svg">
<g opacity="0.75">
<g clip-path="url(#clip0_55_1987)">
<g clip-path="url(#clip1_55_1987)">
<path d="M12.677 15.1399H22.0938L23.9209 10.6423H11.8337C8.31998 10.9234 5.2279 13.1722 3.82241 16.4048L0.0275879 26.3838H6.91449L8.60108 22.1674H18.299L20.1261 17.6698H10.4282L10.7093 16.8265C10.9904 15.9832 11.8337 15.421 12.8175 15.2805" fill="#E30613"/>
<path d="M44.7221 13.8749C44.3005 12.61 43.4572 11.6261 42.3328 11.0639C40.7868 10.3612 38.9596 10.0801 37.1325 10.0801H35.727C33.7593 10.0801 31.6511 10.3612 29.824 11.0639C28.1374 11.6261 26.5913 12.61 25.1858 13.8749C23.9209 15.1398 22.9371 16.6859 22.2343 18.3725C21.5316 19.778 21.391 21.324 21.6721 22.87C21.9532 24.135 22.9371 25.1188 24.0614 25.681C25.748 26.3838 27.4346 26.6649 29.2618 26.6649H30.6672C32.6349 26.6649 34.6026 26.3838 36.5703 25.681C38.2569 25.1188 39.8029 24.135 41.2084 22.87C42.4734 21.6051 43.5978 20.0591 44.3005 18.3725C44.8627 16.967 45.0032 15.4209 44.7221 13.8749ZM37.1325 18.3725C36.2892 20.6213 34.181 22.0267 31.7916 22.0267C29.4023 21.7456 28.559 20.6213 29.4023 18.3725C29.824 17.2481 30.5267 16.4048 31.5105 15.702C32.4944 15.1398 33.6188 14.7182 34.7432 14.7182C35.5865 14.7182 36.4298 14.9993 37.1325 15.702C37.5542 16.5453 37.5542 17.5292 37.1325 18.3725Z" fill="#E30613"/>
<path d="M67.2099 12.0477C66.2261 10.9233 64.68 10.3611 63.2745 10.5017H49.3602L43.176 26.2432H50.0629L51.609 22.4484H53.4361L55.8254 26.2432H63.134L60.7447 22.1673C61.869 21.8862 62.8529 21.4645 63.8367 20.7618C65.3828 19.6374 66.5072 18.0913 67.2099 16.2642C67.9127 14.9993 67.9127 13.4532 67.2099 12.0477ZM60.0419 16.4048C59.9014 16.8264 59.7608 17.1075 59.4797 17.3886C59.1986 17.5291 59.0581 17.6697 58.777 17.8102C58.3553 17.8102 58.0742 17.8102 57.6526 17.8102H53.4361L54.5605 14.9993H58.777C59.0581 14.9993 59.4797 14.9993 59.7608 14.9993C60.0419 14.9993 60.1825 15.1398 60.323 15.2804C60.1825 15.702 60.1825 15.9831 60.0419 16.4048Z" fill="#E30613"/>
<path d="M120.619 10.6423H114.434L111.342 18.3725C110.921 19.3564 110.218 20.3402 109.375 21.043C108.531 21.6052 107.548 22.0268 106.423 22.0268C105.439 21.8863 104.737 21.6052 104.455 21.043C104.034 20.1997 104.034 19.2158 104.455 18.3725L107.548 10.6423H100.661L97.5686 18.6536C96.5847 21.3241 96.4442 23.4323 97.5686 24.6972C98.693 25.9622 100.801 26.6649 104.034 26.6649H105.439C108.25 26.8055 111.061 26.1027 113.451 24.6972C115.559 23.2917 117.245 21.1835 118.089 18.6536L121.181 10.6423H120.619Z" fill="#E30613"/>
<path d="M126.803 20.059L130.598 10.3611H123.711L119.916 20.3401C118.651 23.5727 120.197 26.1026 123.43 26.1026H134.955L136.782 21.4645H127.927C126.803 21.605 126.381 20.9023 126.803 20.059Z" fill="#E30613"/>
<path d="M88.7139 10.5017L80.9838 19.4968L80.4216 10.5017H71.4264L65.3828 26.2432H72.2697L75.0807 18.9346L75.6429 26.2432H82.1081L88.2923 18.9346L85.4813 26.2432H92.3682L98.4118 10.5017H88.7139Z" fill="#E30613"/>
<path d="M154.21 10.3612H153.367C148.728 10.0801 144.371 12.4694 142.263 16.6859L136.501 26.3838H143.107L144.793 23.5728H152.664L152.383 26.2432H158.848L159.832 17.9508C160.394 13.7344 158.989 10.3612 154.21 10.3612ZM153.648 16.4048L153.367 19.2158H147.604L149.01 16.8264C149.712 15.5615 151.118 14.7182 152.523 14.8588C153.226 14.8588 153.788 15.4209 153.788 16.2642C153.648 16.2642 153.648 16.2642 153.648 16.4048Z" fill="#E30613"/>
<path d="M42.0518 45.9201H38.8192L40.0841 40.2981L34.6027 45.9201H31.7917L34.0405 35.3789H37.2732L36.1488 40.8603L41.4896 35.3789H44.3006L42.0518 45.9201Z" fill="#E30613"/>
<path d="M53.0146 35.3789H56.2472L53.9984 45.9201H50.7658L51.6091 42.1253H47.9548L47.1115 45.9201H43.8789L46.1277 35.3789H49.3603L48.517 39.1737H52.1713L53.0146 35.3789Z" fill="#E30613"/>
<path d="M66.6479 35.3789L66.0857 38.0493H62.9937L61.3071 45.7795H58.0744L59.761 38.0493H56.6689L57.2311 35.3789H66.6479Z" fill="#E30613"/>
<path d="M75.6431 37.9088H70.3022L70.0211 39.5954H74.7998L74.2376 41.9847H69.4589L69.1778 43.5307H74.7998L74.2376 45.9201H67.4912C66.3668 45.9201 65.5235 45.0768 65.9452 43.3902L67.0696 37.9088C67.3507 36.5033 68.0534 35.3789 69.74 35.3789H76.2053L75.6431 37.9088Z" fill="#E30613"/>
<path d="M86.4653 38.6115C86.4653 40.5792 84.9192 43.2497 80.7028 43.2497H79.2973L78.7351 45.9201H75.5024L77.7512 35.3789H82.2488C84.7787 35.3789 86.4653 36.6438 86.4653 38.6115ZM80.9838 40.7198C82.5299 40.7198 83.0921 39.8765 83.0921 39.1737C83.0921 38.471 82.5299 38.0493 81.6866 38.0493H80.4217L79.8595 40.7198H80.9838Z" fill="#E30613"/>
<path d="M95.0388 35.3789H98.4119L96.1632 45.9201H92.79L93.6333 42.1253H89.979L89.1357 45.9201H85.9031L88.1519 35.3789H91.3845L90.5412 39.1737H94.1955L95.0388 35.3789Z" fill="#E30613"/>
<path d="M108.25 37.9088H102.769L102.488 39.5954H107.266L106.845 41.9847H102.066L101.785 43.5307H107.407L106.845 45.9201H100.239C99.1147 45.9201 98.2713 45.0768 98.693 43.3902L99.8174 37.9088C99.9579 36.5033 101.082 35.3789 102.488 35.3789H108.953L108.25 37.9088Z" fill="#E30613"/>
<path d="M119.073 35.3789L118.51 38.0493H115.278L113.591 45.7795H110.359L112.045 38.0493H108.953L109.515 35.3789H119.073Z" fill="#E30613"/>
<path d="M124.835 45.9201L124.554 44.374H120.338L119.354 45.9201H115.981L121.322 37.4871C121.322 37.4871 122.446 35.3789 124.133 35.3789C125.819 35.3789 126.381 37.6277 126.381 37.6277L128.208 45.9201H124.835ZM124.273 41.9847L123.992 40.2981C123.992 40.017 123.711 39.7359 123.43 39.7359C123.149 39.7359 123.008 39.8765 122.868 40.017L121.743 41.8442H124.273V41.9847Z" fill="#E30613"/>
</g>
</g>
</g>
<defs>
<clipPath id="clip0_55_1987">
<rect width="159.95" height="35.84" fill="white" transform="translate(0.0249023 10.0801)"/>
</clipPath>
<clipPath id="clip1_55_1987">
<rect width="159.945" height="35.84" fill="white" transform="translate(0.0275879 10.0801)"/>
</clipPath>
</defs>
</svg>
