<svg width="32" height="32" viewBox="0 0 32 32" fill="none" xmlns="http://www.w3.org/2000/svg">
<path d="M27.664 4H15.2603C15.2603 6.99443 17.7697 9.43176 20.8527 9.43176H23.147V11.5557C23.147 14.5501 25.6565 16.9875 28.7395 16.9875V5.04457C28.7395 4.45265 28.2735 4 27.664 4Z" fill="#2684FF"/>
<path d="M21.5339 9.98877H9.13013C9.13013 12.9832 11.6396 15.4205 14.7226 15.4205H17.0169V17.5793C17.0169 20.5737 19.5264 23.0111 22.6094 23.0111V11.0333C22.6094 10.4762 22.1433 9.98877 21.5339 9.98877Z" fill="url(#paint0_linear_164_132)"/>
<path d="M15.4038 16.0125H3C3 19.0069 5.50943 21.4442 8.59245 21.4442H10.8868V23.5682C10.8868 26.5626 13.3962 28.9999 16.4792 28.9999V17.057C16.4792 16.4651 15.9774 16.0125 15.4038 16.0125Z" fill="url(#paint1_linear_164_132)"/>
<defs>
<linearGradient id="paint0_linear_164_132" x1="22.3455" y1="10.0188" x2="17.2302" y2="15.45" gradientUnits="userSpaceOnUse">
<stop offset="0.176" stop-color="#0052CC"/>
<stop offset="1" stop-color="#2684FF"/>
</linearGradient>
<linearGradient id="paint1_linear_164_132" x1="16.5601" y1="16.0525" x2="10.6356" y2="21.9874" gradientUnits="userSpaceOnUse">
<stop offset="0.176" stop-color="#0052CC"/>
<stop offset="1" stop-color="#2684FF"/>
</linearGradient>
</defs>
</svg>
