<svg width="160" height="56" viewBox="0 0 160 56" fill="none" xmlns="http://www.w3.org/2000/svg">
<g opacity="0.75">
<g clip-path="url(#clip0_55_1932)">
<g clip-path="url(#clip1_55_1932)">
<path d="M0.0439453 27.7426V40.3503H8.72782H17.4117V37.5844V34.8184L12.0985 34.7927L6.79807 34.7541L6.75948 24.9381L6.73375 15.1349H3.38885H0.0439453V27.7426Z" fill="black"/>
<path d="M20.2678 23.9089C20.3193 32.5799 20.3193 32.7086 20.6023 33.712C21.8374 37.9832 24.8221 40.2732 29.8008 40.7363C34.072 41.148 38.1245 39.81 40.0542 37.3657C40.7875 36.4394 41.5466 34.8956 41.881 33.622C42.1512 32.5928 42.1641 32.3098 42.2027 23.8446L42.2541 15.135H38.9092H35.5515V22.7511C35.5515 32.001 35.4743 32.7214 34.3936 33.9565C33.7761 34.6512 32.9141 35.05 31.7306 35.1529C30.0324 35.3073 28.5143 34.6769 27.7939 33.5191C27.0091 32.2454 27.0091 32.3226 26.9705 23.33L26.919 15.135H23.5741H20.2292L20.2678 23.9089Z" fill="black"/>
<path d="M47.7732 27.7298V40.3503H54.6302C58.464 40.3503 61.9376 40.2989 62.5165 40.2217C65.3596 39.8615 67.3023 38.8709 68.3572 37.237C68.9747 36.285 69.2191 35.5774 69.3864 34.2009C69.7723 31.1133 68.5888 28.7204 66.1444 27.614L65.1795 27.1766L65.9 26.7134C66.8263 26.1088 67.3923 25.4527 67.8941 24.3977C68.2285 23.6773 68.2929 23.3814 68.3315 22.275C68.473 18.557 66.9678 16.4729 63.4042 15.4952C62.4136 15.225 62.1305 15.2121 55.0805 15.1607L47.7732 15.1221V27.7298ZM60.278 20.6026C61.3458 20.9757 61.7832 21.7861 61.6288 23.1112C61.5259 23.9346 61.2557 24.3206 60.5353 24.6808C59.9692 24.9509 59.7376 24.9767 57.2032 25.0153L54.463 25.0667V22.7639C54.463 21.4903 54.5016 20.4096 54.5659 20.3453C54.746 20.1523 59.6219 20.371 60.278 20.6026ZM60.1236 29.8139C61.2428 29.994 61.9504 30.3285 62.3235 30.8431C62.5937 31.2291 62.6323 31.422 62.6323 32.4641C62.6323 33.4418 62.5937 33.6991 62.3621 34.0079C61.706 34.9213 60.0207 35.2429 56.3927 35.1786L54.5273 35.14L54.4887 32.567C54.4759 31.1519 54.4887 29.9297 54.5145 29.8396C54.6045 29.6338 58.8757 29.6081 60.1236 29.8139Z" fill="black"/>
<path d="M74.0176 27.7426V40.3503H77.3625H80.7074L80.7331 33.6605L80.7717 26.9707L85.4031 33.6605L90.0345 40.3503H93.2122H96.4027V27.7426V15.1349H92.8648H89.3269V21.8247C89.3269 25.5041 89.2883 28.5145 89.2369 28.5017C89.1725 28.5017 87.0498 25.4913 84.5026 21.8119L79.884 15.1349H76.9508H74.0176V27.7426Z" fill="black"/>
<path d="M101.935 27.7426V40.3503H111.133H120.332V37.5844V34.8184H114.478H108.625V32.5027V30.187H114.478H120.332V27.7426V25.2983H114.478H108.625V22.9826V20.6669H114.478H120.332V17.9009V15.1349H111.133H101.935V27.7426Z" fill="black"/>
<path d="M124.062 17.9009V20.6669H127.858H131.653V30.5086V40.3503H135.062H138.471V30.5086V20.6669H142.266H146.062V17.9009V15.1349H135.062H124.062V17.9009Z" fill="black"/>
<path d="M157.254 22.1465V23.4973H158.605H159.956V22.1465V20.7957H158.605H157.254V22.1465Z" fill="black"/>
<path d="M151.594 27.7426V29.1578H148.828H146.062V34.7541V40.3503H151.658H157.254V37.52V34.6897H154.424H151.594V31.9238V29.1578H153.009H154.424V27.7426V26.3275H153.009H151.594V27.7426Z" fill="black"/>
<path d="M157.254 30.5729V31.988H158.605H159.956V30.5729V29.1577H158.605H157.254V30.5729Z" fill="black"/>
</g>
</g>
</g>
<defs>
<clipPath id="clip0_55_1932">
<rect width="159.94" height="25.73" fill="white" transform="translate(0.0300293 15.135)"/>
</clipPath>
<clipPath id="clip1_55_1932">
<rect width="159.912" height="25.73" fill="white" transform="translate(0.0439453 15.135)"/>
</clipPath>
</defs>
</svg>
