<svg width="32" height="32" viewBox="0 0 32 32" fill="none" xmlns="http://www.w3.org/2000/svg">
<path d="M9.4158 4H23.5842C26.5732 4 29 6.42675 29 9.4158V23.5842C29 26.5732 26.5732 29 23.5842 29H9.4158C6.42675 29 4 26.5732 4 23.5842V9.4158C4 6.42675 6.42675 4 9.4158 4Z" fill="#FFD02F"/>
<path d="M21.3719 7.12207H18.627L20.9132 11.1395L15.8821 7.12207H13.1373L15.6528 12.0348L10.3924 7.12207H7.64746L10.3924 13.3739L7.64746 25.8776H10.3924L15.6528 12.4787L13.1373 25.8776H15.8821L20.9132 11.5908L18.627 25.8776H21.3719L26.403 10.2443L21.3719 7.12207Z" fill="#050038"/>
</svg>
