<svg xmlns="http://www.w3.org/2000/svg" width="160" height="56" viewBox="0 0 160 56" fill="none"><g opacity="0.75"><path d="M5.71621 26.6109L8.52321 23.7659C9.78721 27.2059 13.3342 28.5439 16.2132 28.5439C18.5672 28.5439 20.4622 27.7019 20.4622 25.5579C20.4622 23.2739 18.5662 22.6429 15.5102 21.9779L13.2972 21.4879C9.9762 20.7839 6.43921 19.2769 6.41621 14.8449C6.40121 11.4119 9.09621 8.58189 12.5032 8.13889C17.8272 7.45389 22.1572 9.26289 24.1122 13.0209L21.1262 15.8659C19.8252 12.9499 17.2982 11.6859 14.4202 11.6859C12.1732 11.6859 10.5592 12.7399 10.5592 14.5319C10.5592 16.6059 12.1732 17.3399 14.7392 17.9719L17.3732 18.6039C21.1312 19.5159 24.5012 20.9899 24.5012 25.4879C24.5012 29.7379 20.9212 32.1939 16.1422 32.1939C11.6502 32.1939 7.54121 30.5799 5.71021 26.6109H5.71621ZM27.0442 23.3119C27.0442 17.9399 30.3812 14.3919 35.1922 14.3919C40.3222 14.3919 43.1622 17.7989 43.1622 22.5399V24.2629H30.8022C31.0122 27.3189 32.8052 28.9709 35.5102 28.9709C38.4962 28.9709 39.8302 27.4269 40.4622 25.9849L42.8862 28.5119C41.5852 30.4769 39.2692 32.1999 35.4782 32.1999C30.3862 32.1999 27.0492 28.6519 27.0492 23.3179L27.0442 23.3119ZM30.8342 21.7299H39.6142C39.3342 19.0249 37.7892 17.5499 35.1862 17.5499C32.7622 17.5499 31.1482 18.9549 30.8342 21.7299ZM50.0782 31.8439L44.0042 14.7439H48.3562L51.2722 24.0459L52.6762 29.2789L54.0472 24.0459L56.9252 14.7429H61.2072L55.0952 31.8429H50.0732L50.0782 31.8439ZM61.8382 23.3119C61.8382 17.9399 65.1762 14.3919 69.9872 14.3919C75.1172 14.3919 77.9572 17.7989 77.9572 22.5399V24.2629H65.5962C65.8062 27.3189 67.5992 28.9709 70.3042 28.9709C73.2902 28.9709 74.6242 27.4269 75.2562 25.9849L77.6802 28.5119C76.3792 30.4769 74.0622 32.1999 70.2722 32.1999C65.1802 32.1999 61.8432 28.6519 61.8432 23.3179L61.8382 23.3119ZM65.6292 21.7299H74.4092C74.1292 19.0249 72.5842 17.5499 69.9812 17.5499C67.5572 17.5499 65.9422 18.9549 65.6292 21.7299ZM81.1762 31.8439V14.7439H85.1062V19.4139C85.7382 16.7089 87.4932 14.3919 90.9002 14.3919C94.3072 14.3919 96.2732 16.3949 96.2732 19.9419V31.8489H92.3042V21.1309C92.3042 19.0249 91.6022 17.5829 88.9672 17.5829C86.0892 17.5829 85.1072 19.4459 85.1072 22.2529V31.8379H81.1762V31.8439Z" fill="#E0009B"></path><path d="M100.564 25.564C101.39 24.727 102.724 24.845 103.474 25.742C105.132 27.729 107.784 28.539 110.03 28.539C112.276 28.539 114.279 27.697 114.279 25.553C114.279 23.269 112.384 22.637 109.328 21.973L107.114 21.482C103.788 20.78 100.251 19.279 100.23 14.846C100.213 11.411 102.908 8.57598 106.315 8.13898C110.845 7.55598 114.652 8.78198 116.898 11.471C117.568 12.27 117.465 13.463 116.709 14.181C115.861 14.991 114.533 14.873 113.761 13.992C112.368 12.4 110.402 11.687 108.237 11.687C106.072 11.687 104.377 12.74 104.377 14.532C104.377 16.606 105.991 17.34 108.556 17.972L111.191 18.604C114.949 19.516 118.318 20.99 118.318 25.488C118.318 29.738 114.738 32.194 109.96 32.194C106.045 32.194 102.427 30.969 100.348 28.037C100.088 27.6652 99.9664 27.2135 100.006 26.7611C100.045 26.3088 100.243 25.8849 100.564 25.564ZM121.741 29.879V10.282C121.741 9.7607 121.948 9.26076 122.317 8.89216C122.685 8.52356 123.185 8.31648 123.707 8.31648C124.228 8.31648 124.728 8.52356 125.097 8.89216C125.465 9.26076 125.672 9.7607 125.672 10.282V19.094L125.531 22.394L128.339 19.304L132.518 15.217C132.832 14.909 133.253 14.737 133.69 14.737C135.197 14.737 135.942 16.567 134.862 17.615L130.899 21.475L135.845 28.884C136.687 30.142 135.785 31.832 134.268 31.832C133.615 31.832 133.004 31.492 132.659 30.935L128.231 23.825L125.666 26.351V29.861C125.666 30.3821 125.459 30.8819 125.091 31.2504C124.722 31.619 124.222 31.826 123.701 31.826C123.18 31.826 122.68 31.619 122.312 31.2504C121.943 30.8819 121.736 30.3821 121.736 29.861L121.741 29.879ZM145.527 37.335C144.263 37.335 143.102 36.05 143.723 34.619L145.986 30.694L145.462 30.785C144.887 30.7843 144.327 30.6053 143.858 30.2728C143.388 29.9402 143.034 29.4704 142.843 28.928L138.788 17.421C138.681 17.1172 138.649 16.7921 138.693 16.4731C138.738 16.1541 138.858 15.8505 139.045 15.5876C139.231 15.3248 139.477 15.1105 139.763 14.9626C140.05 14.8148 140.367 14.7378 140.689 14.738C141.563 14.738 142.341 15.305 142.611 16.142L145.251 24.43L146.704 28.63C148.329 24.63 149.36 20.634 150.316 16.158C150.446 15.7457 150.704 15.3856 151.053 15.1302C151.402 14.8748 151.823 14.7374 152.255 14.738C152.58 14.7384 152.9 14.8163 153.188 14.9654C153.477 15.1145 153.725 15.3304 153.913 15.5951C154.101 15.8598 154.224 16.1656 154.269 16.4871C154.315 16.8085 154.284 17.1362 154.177 17.443C152.789 23.269 150.845 29.933 147.201 36.244C146.866 36.865 146.266 37.335 145.521 37.335H145.527Z" fill="#00AEEF"></path></g></svg>