<svg width="160" height="56" viewBox="0 0 160 56" fill="none" xmlns="http://www.w3.org/2000/svg">
<g clip-path="url(#clip0_163_30)">
<g opacity="0.75">
<path d="M5.71621 31.6109L8.52321 28.7659C9.78721 32.2059 13.3342 33.5439 16.2132 33.5439C18.5672 33.5439 20.4622 32.7019 20.4622 30.5579C20.4622 28.2739 18.5662 27.6429 15.5102 26.9779L13.2972 26.4879C9.9762 25.7839 6.43921 24.2769 6.41621 19.8449C6.40121 16.4119 9.09621 13.5819 12.5032 13.1389C17.8272 12.4539 22.1572 14.2629 24.1122 18.0209L21.1262 20.8659C19.8252 17.9499 17.2982 16.6859 14.4202 16.6859C12.1732 16.6859 10.5592 17.7399 10.5592 19.5319C10.5592 21.6059 12.1732 22.3399 14.7392 22.9719L17.3732 23.6039C21.1312 24.5159 24.5012 25.9899 24.5012 30.4879C24.5012 34.7379 20.9212 37.1939 16.1422 37.1939C11.6502 37.1939 7.54121 35.5799 5.71021 31.6109H5.71621ZM27.0442 28.3119C27.0442 22.9399 30.3812 19.3919 35.1922 19.3919C40.3222 19.3919 43.1622 22.7989 43.1622 27.5399V29.2629H30.8022C31.0122 32.3189 32.8052 33.9709 35.5102 33.9709C38.4962 33.9709 39.8302 32.4269 40.4622 30.9849L42.8862 33.5119C41.5852 35.4769 39.2692 37.1999 35.4782 37.1999C30.3862 37.1999 27.0492 33.6519 27.0492 28.3179L27.0442 28.3119ZM30.8342 26.7299H39.6142C39.3342 24.0249 37.7892 22.5499 35.1862 22.5499C32.7622 22.5499 31.1482 23.9549 30.8342 26.7299ZM50.0782 36.8439L44.0042 19.7439H48.3562L51.2722 29.0459L52.6762 34.2789L54.0472 29.0459L56.9252 19.7429H61.2072L55.0952 36.8429H50.0732L50.0782 36.8439ZM61.8382 28.3119C61.8382 22.9399 65.1762 19.3919 69.9872 19.3919C75.1172 19.3919 77.9572 22.7989 77.9572 27.5399V29.2629H65.5962C65.8062 32.3189 67.5992 33.9709 70.3042 33.9709C73.2902 33.9709 74.6242 32.4269 75.2562 30.9849L77.6802 33.5119C76.3792 35.4769 74.0622 37.1999 70.2722 37.1999C65.1802 37.1999 61.8432 33.6519 61.8432 28.3179L61.8382 28.3119ZM65.6292 26.7299H74.4092C74.1292 24.0249 72.5842 22.5499 69.9812 22.5499C67.5572 22.5499 65.9422 23.9549 65.6292 26.7299ZM81.1762 36.8439V19.7439H85.1062V24.4139C85.7382 21.7089 87.4932 19.3919 90.9002 19.3919C94.3072 19.3919 96.2732 21.3949 96.2732 24.9419V36.8489H92.3042V26.1309C92.3042 24.0249 91.6022 22.5829 88.9672 22.5829C86.0892 22.5829 85.1072 24.4459 85.1072 27.2529V36.8379H81.1762V36.8439Z" fill="#E0009B"/>
<path d="M100.564 30.564C101.39 29.727 102.724 29.845 103.474 30.742C105.132 32.729 107.784 33.539 110.03 33.539C112.276 33.539 114.279 32.697 114.279 30.553C114.279 28.269 112.384 27.637 109.328 26.973L107.114 26.482C103.788 25.78 100.251 24.279 100.23 19.846C100.213 16.411 102.908 13.576 106.315 13.139C110.845 12.556 114.652 13.782 116.898 16.471C117.568 17.27 117.465 18.463 116.709 19.181C115.861 19.991 114.533 19.873 113.761 18.992C112.368 17.4 110.402 16.687 108.237 16.687C106.072 16.687 104.377 17.74 104.377 19.532C104.377 21.606 105.991 22.34 108.556 22.972L111.191 23.604C114.949 24.516 118.318 25.99 118.318 30.488C118.318 34.738 114.738 37.194 109.96 37.194C106.045 37.194 102.427 35.969 100.348 33.037C100.088 32.6652 99.9664 32.2135 100.006 31.7611C100.045 31.3088 100.243 30.8849 100.564 30.564ZM121.741 34.879V15.282C121.741 14.7607 121.948 14.2608 122.317 13.8922C122.685 13.5236 123.185 13.3165 123.707 13.3165C124.228 13.3165 124.728 13.5236 125.097 13.8922C125.465 14.2608 125.672 14.7607 125.672 15.282V24.094L125.531 27.394L128.339 24.304L132.518 20.217C132.832 19.909 133.253 19.737 133.69 19.737C135.197 19.737 135.942 21.567 134.862 22.615L130.899 26.475L135.845 33.884C136.687 35.142 135.785 36.832 134.268 36.832C133.615 36.832 133.004 36.492 132.659 35.935L128.231 28.825L125.666 31.351V34.861C125.666 35.3821 125.459 35.8819 125.091 36.2504C124.722 36.619 124.222 36.826 123.701 36.826C123.18 36.826 122.68 36.619 122.312 36.2504C121.943 35.8819 121.736 35.3821 121.736 34.861L121.741 34.879ZM145.527 42.335C144.263 42.335 143.102 41.05 143.723 39.619L145.986 35.694L145.462 35.785C144.887 35.7843 144.327 35.6053 143.858 35.2728C143.388 34.9402 143.034 34.4704 142.843 33.928L138.788 22.421C138.681 22.1172 138.649 21.7921 138.693 21.4731C138.738 21.1541 138.858 20.8505 139.045 20.5876C139.231 20.3248 139.477 20.1105 139.763 19.9626C140.05 19.8148 140.367 19.7378 140.689 19.738C141.563 19.738 142.341 20.305 142.611 21.142L145.251 29.43L146.704 33.63C148.329 29.63 149.36 25.634 150.316 21.158C150.446 20.7457 150.704 20.3856 151.053 20.1302C151.402 19.8748 151.823 19.7374 152.255 19.738C152.58 19.7384 152.9 19.8163 153.188 19.9654C153.477 20.1145 153.725 20.3304 153.913 20.5951C154.101 20.8598 154.224 21.1656 154.269 21.4871C154.315 21.8085 154.284 22.1362 154.177 22.443C152.789 28.269 150.845 34.933 147.201 41.244C146.866 41.865 146.266 42.335 145.521 42.335H145.527Z" fill="#00AEEF"/>
<path opacity="0.01" d="M113.292 44.7218C113.291 45.2298 113.089 45.7167 112.729 46.0758C112.37 46.4349 111.883 46.637 111.375 46.6378C110.867 46.6375 110.38 46.4357 110.02 46.0768C109.842 45.8991 109.7 45.6879 109.604 45.4554C109.507 45.2229 109.458 44.9736 109.458 44.7218C109.458 44.47 109.507 44.2208 109.604 43.9882C109.7 43.7557 109.842 43.5445 110.02 43.3668C110.198 43.1885 110.409 43.047 110.642 42.9504C110.874 42.8539 111.123 42.8042 111.375 42.8042C111.627 42.8042 111.876 42.8539 112.109 42.9504C112.341 43.047 112.552 43.1885 112.73 43.3668C113.081 43.7118 113.292 44.1918 113.292 44.7218Z" fill="#FCFEFF"/>
<path opacity="0.02" d="M113.604 45.0238C113.605 45.4034 113.494 45.7749 113.283 46.0909C113.073 46.4068 112.773 46.6531 112.422 46.7984C112.072 46.9436 111.686 46.9813 111.313 46.9066C110.941 46.8319 110.6 46.6482 110.332 46.3788C110.154 46.2008 110.013 45.9895 109.917 45.7569C109.82 45.5244 109.771 45.2751 109.771 45.0234C109.771 44.7717 109.821 44.5225 109.917 44.29C110.013 44.0575 110.155 43.8462 110.333 43.6683C110.511 43.4904 110.722 43.3492 110.954 43.2529C111.187 43.1567 111.436 43.1071 111.688 43.1072C111.94 43.1072 112.189 43.1568 112.421 43.2532C112.654 43.3496 112.865 43.4908 113.043 43.6688C113.394 44.0138 113.604 44.4948 113.604 45.0238Z" fill="#F9FDFF"/>
<path opacity="0.04" d="M113.923 45.3258C113.922 45.834 113.72 46.3211 113.361 46.6805C113.002 47.0398 112.514 47.242 112.006 47.2428C111.498 47.2422 111.011 47.0401 110.651 46.6808C110.473 46.5031 110.331 46.2919 110.235 46.0594C110.138 45.8269 110.089 45.5776 110.089 45.3258C110.089 45.074 110.138 44.8248 110.235 44.5922C110.331 44.3597 110.473 44.1485 110.651 43.9708C110.829 43.7925 111.04 43.651 111.273 43.5544C111.505 43.4579 111.754 43.4082 112.006 43.4082C112.258 43.4082 112.507 43.4579 112.74 43.5544C112.972 43.651 113.184 43.7925 113.361 43.9708C113.712 44.3158 113.923 44.7968 113.923 45.3258Z" fill="#F6FCFE"/>
<path opacity="0.05" d="M114.241 45.6178C114.247 45.8732 114.202 46.1272 114.108 46.3648C114.014 46.6024 113.874 46.8189 113.696 47.0016C113.517 47.1842 113.304 47.3294 113.068 47.4285C112.833 47.5276 112.58 47.5786 112.325 47.5786C112.069 47.5786 111.816 47.5276 111.581 47.4285C111.346 47.3294 111.132 47.1842 110.954 47.0016C110.775 46.8189 110.635 46.6024 110.541 46.3648C110.448 46.1272 110.402 45.8732 110.408 45.6178C110.42 45.1171 110.627 44.6408 110.985 44.2907C111.343 43.9406 111.824 43.7446 112.325 43.7446C112.826 43.7446 113.307 43.9406 113.665 44.2907C114.023 44.6408 114.23 45.1171 114.241 45.6178Z" fill="#F2FBFE"/>
<path opacity="0.06" d="M114.571 45.904C114.577 46.1593 114.532 46.4133 114.438 46.6509C114.344 46.8885 114.204 47.105 114.026 47.2877C113.847 47.4704 113.634 47.6155 113.398 47.7146C113.163 47.8137 112.91 47.8648 112.655 47.8648C112.399 47.8648 112.147 47.8137 111.911 47.7146C111.676 47.6155 111.462 47.4704 111.284 47.2877C111.105 47.105 110.965 46.8885 110.871 46.6509C110.778 46.4133 110.732 46.1593 110.738 45.904C110.75 45.4033 110.957 44.9269 111.315 44.5768C111.673 44.2268 112.154 44.0308 112.655 44.0308C113.156 44.0308 113.637 44.2268 113.995 44.5768C114.353 44.9269 114.56 45.4033 114.571 45.904Z" fill="#EFFAFE"/>
<path opacity="0.07" d="M114.899 46.179C114.899 46.6873 114.697 47.1748 114.338 47.5342C113.978 47.8936 113.491 48.0955 112.983 48.0955C112.474 48.0955 111.987 47.8936 111.628 47.5342C111.268 47.1748 111.066 46.6873 111.066 46.179C111.065 45.7994 111.177 45.4279 111.387 45.112C111.597 44.796 111.897 44.5497 112.248 44.4044C112.599 44.2592 112.985 44.2215 113.357 44.2962C113.729 44.3709 114.071 44.5547 114.338 44.824C114.689 45.17 114.899 45.65 114.899 46.179Z" fill="#ECF9FE"/>
<path opacity="0.09" d="M115.235 46.4488C115.235 46.9571 115.033 47.4445 114.674 47.804C114.314 48.1634 113.827 48.3653 113.319 48.3653C112.81 48.3653 112.323 48.1634 111.963 47.804C111.604 47.4445 111.402 46.9571 111.402 46.4488C111.401 46.0691 111.513 45.6977 111.723 45.3817C111.933 45.0657 112.233 44.8195 112.584 44.6742C112.935 44.5289 113.321 44.4913 113.693 44.566C114.065 44.6407 114.407 44.8244 114.674 45.0938C115.025 45.4398 115.235 45.9198 115.235 46.4488Z" fill="#E9F8FE"/>
<path opacity="0.1" d="M115.575 46.7138C115.581 46.9692 115.536 47.2231 115.442 47.4607C115.348 47.6984 115.208 47.9149 115.03 48.0975C114.851 48.2802 114.638 48.4253 114.402 48.5244C114.167 48.6235 113.914 48.6746 113.659 48.6746C113.403 48.6746 113.15 48.6235 112.915 48.5244C112.68 48.4253 112.466 48.2802 112.288 48.0975C112.109 47.9149 111.969 47.6984 111.875 47.4607C111.782 47.2231 111.736 46.9692 111.742 46.7138C111.754 46.2131 111.961 45.7367 112.319 45.3867C112.677 45.0366 113.158 44.8406 113.659 44.8406C114.16 44.8406 114.64 45.0366 114.999 45.3867C115.357 45.7367 115.564 46.2131 115.575 46.7138Z" fill="#E6F7FD"/>
<path opacity="0.11" d="M115.921 46.9679C115.92 47.4759 115.718 47.9628 115.359 48.3219C114.999 48.681 114.512 48.8831 114.004 48.8839C113.496 48.8836 113.009 48.6818 112.649 48.3229C112.471 48.1452 112.329 47.934 112.233 47.7015C112.136 47.469 112.087 47.2197 112.087 46.9679C112.087 46.7161 112.136 46.4668 112.233 46.2343C112.329 46.0018 112.471 45.7906 112.649 45.6129C112.827 45.4346 113.038 45.2931 113.271 45.1965C113.503 45.1 113.753 45.0503 114.004 45.0503C114.256 45.0503 114.505 45.1 114.738 45.1965C114.97 45.2931 115.182 45.4346 115.359 45.6129C115.71 45.9579 115.921 46.4379 115.921 46.9679Z" fill="#E3F6FD"/>
<path opacity="0.12" d="M116.266 47.2159C116.267 47.5956 116.156 47.967 115.945 48.283C115.735 48.599 115.435 48.8453 115.085 48.9905C114.734 49.1358 114.348 49.1734 113.976 49.0987C113.603 49.024 113.262 48.8403 112.994 48.5709C112.635 48.2114 112.433 47.7239 112.433 47.2156C112.433 46.7073 112.635 46.2198 112.995 45.8604C113.354 45.5011 113.842 45.2992 114.35 45.2993C114.858 45.2994 115.346 45.5014 115.705 45.8609C116.056 46.2059 116.266 46.6869 116.266 47.2159Z" fill="#E0F5FD"/>
<path opacity="0.14" d="M116.618 47.4589C116.618 47.9889 116.402 48.4629 116.057 48.8139C115.712 49.1649 115.23 49.3759 114.701 49.3759C114.193 49.3753 113.706 49.1732 113.346 48.8139C113.168 48.6362 113.026 48.425 112.93 48.1925C112.833 47.9599 112.784 47.7107 112.784 47.4589C112.784 47.2071 112.833 46.9578 112.93 46.7253C113.026 46.4928 113.168 46.2816 113.346 46.1039C113.524 45.9254 113.735 45.7838 113.968 45.6871C114.201 45.5905 114.45 45.5408 114.702 45.5408C114.954 45.5408 115.203 45.5905 115.436 45.6871C115.668 45.7838 115.88 45.9254 116.057 46.1039C116.407 46.4489 116.618 46.9299 116.618 47.4589Z" fill="#DCF4FD"/>
<path opacity="0.15" d="M116.974 47.6909C116.973 48.1991 116.771 48.6862 116.412 49.0455C116.053 49.4049 115.565 49.6071 115.057 49.6079C114.742 49.6077 114.432 49.5298 114.155 49.3812C113.877 49.2326 113.64 49.0178 113.465 48.7558C113.29 48.4939 113.183 48.1929 113.152 47.8795C113.121 47.566 113.168 47.2498 113.288 46.9588C113.409 46.6678 113.599 46.411 113.843 46.2111C114.086 46.0113 114.375 45.8745 114.684 45.8129C114.993 45.7513 115.312 45.7668 115.614 45.858C115.915 45.9492 116.189 46.1134 116.412 46.3359C116.763 46.6819 116.974 47.1619 116.974 47.6909Z" fill="#D9F3FD"/>
<path opacity="0.16" d="M117.335 47.9179C117.334 48.426 117.132 48.9132 116.773 49.2725C116.413 49.6318 115.926 49.8341 115.418 49.8349C114.91 49.8343 114.423 49.6321 114.063 49.2729C113.885 49.0951 113.743 48.884 113.647 48.6514C113.55 48.4189 113.5 48.1696 113.5 47.9179C113.5 47.6661 113.55 47.4168 113.647 47.1843C113.743 46.9518 113.885 46.7406 114.063 46.5629C114.241 46.3845 114.452 46.243 114.685 46.1465C114.917 46.0499 115.166 46.0002 115.418 46.0002C115.67 46.0002 115.919 46.0499 116.152 46.1465C116.384 46.243 116.595 46.3845 116.773 46.5629C117.124 46.9079 117.335 47.3889 117.335 47.9179Z" fill="#D6F2FC"/>
<path opacity="0.17" d="M117.696 48.134C117.702 48.3893 117.657 48.6433 117.563 48.8809C117.469 49.1185 117.329 49.335 117.151 49.5177C116.972 49.7004 116.759 49.8455 116.523 49.9446C116.288 50.0437 116.035 50.0947 115.78 50.0947C115.524 50.0947 115.272 50.0437 115.036 49.9446C114.801 49.8455 114.587 49.7004 114.409 49.5177C114.23 49.335 114.09 49.1185 113.996 48.8809C113.903 48.6433 113.857 48.3893 113.863 48.134C113.875 47.6333 114.082 47.1569 114.44 46.8068C114.798 46.4567 115.279 46.2607 115.78 46.2607C116.281 46.2607 116.762 46.4567 117.12 46.8068C117.478 47.1569 117.685 47.6333 117.696 48.134Z" fill="#D3F1FC"/>
<path opacity="0.19" d="M118.063 48.3448C118.064 48.7243 117.952 49.0954 117.741 49.411C117.531 49.7267 117.231 49.9727 116.881 50.1179C116.53 50.2631 116.144 50.3008 115.772 50.2264C115.4 50.152 115.059 49.9687 114.791 49.6998C114.432 49.3403 114.23 48.8528 114.23 48.3445C114.23 47.8362 114.432 47.3487 114.792 46.9893C115.151 46.63 115.639 46.4281 116.147 46.4282C116.655 46.4283 117.143 46.6303 117.502 46.9898C117.853 47.3348 118.063 47.8148 118.063 48.3448Z" fill="#D0F0FC"/>
<path opacity="0.2" d="M118.431 48.5489C118.432 48.9286 118.32 49.2999 118.11 49.6158C117.899 49.9317 117.6 50.1779 117.249 50.3231C116.898 50.4683 116.512 50.506 116.14 50.4314C115.768 50.3567 115.426 50.1731 115.158 49.9039C114.799 49.5444 114.597 49.0569 114.597 48.5486C114.597 48.0403 114.799 47.5528 115.159 47.1934C115.518 46.8341 116.006 46.6322 116.514 46.6323C117.022 46.6324 117.51 46.8344 117.869 47.1939C118.22 47.5399 118.431 48.0199 118.431 48.5489Z" fill="#CDEFFC"/>
<path opacity="0.21" d="M118.804 48.7439C118.803 49.252 118.601 49.7392 118.242 50.0985C117.883 50.4578 117.395 50.6601 116.887 50.6609C116.572 50.6606 116.262 50.5828 115.985 50.4342C115.707 50.2855 115.47 50.0708 115.295 49.8088C115.12 49.5469 115.013 49.2459 114.982 48.9324C114.951 48.619 114.998 48.3028 115.118 48.0118C115.239 47.7208 115.429 47.464 115.673 47.2641C115.916 47.0642 116.205 46.9274 116.514 46.8659C116.823 46.8043 117.142 46.8198 117.444 46.911C117.745 47.0022 118.019 47.1663 118.242 47.3889C118.593 47.7349 118.804 48.2149 118.804 48.7439Z" fill="#C9EEFC"/>
<path opacity="0.22" d="M119.183 48.933C119.184 49.3126 119.072 49.6839 118.862 49.9998C118.651 50.3157 118.352 50.5619 118.001 50.7071C117.65 50.8523 117.264 50.89 116.892 50.8154C116.52 50.7408 116.178 50.5572 115.91 50.288C115.551 49.9285 115.349 49.4409 115.349 48.9326C115.349 48.4243 115.551 47.9368 115.911 47.5775C116.27 47.2181 116.758 47.0163 117.266 47.0164C117.774 47.0165 118.262 47.2185 118.621 47.578C118.972 47.924 119.183 48.404 119.183 48.933Z" fill="#C6EDFB"/>
<path opacity="0.23" d="M119.559 49.1108C119.559 49.6408 119.343 50.1158 118.998 50.4668C118.821 50.6454 118.61 50.787 118.377 50.8833C118.144 50.9796 117.895 51.0287 117.643 51.0278C117.328 51.0276 117.018 50.9497 116.74 50.8011C116.463 50.6525 116.226 50.4377 116.051 50.1758C115.876 49.9138 115.769 49.6128 115.738 49.2994C115.707 48.9859 115.754 48.6697 115.874 48.3787C115.995 48.0877 116.185 47.8309 116.429 47.6311C116.672 47.4312 116.961 47.2944 117.27 47.2328C117.579 47.1712 117.898 47.1867 118.199 47.2779C118.501 47.3692 118.775 47.5333 118.998 47.7558C119.349 48.1018 119.559 48.5818 119.559 49.1108Z" fill="#C3ECFB"/>
<path opacity="0.25" d="M119.944 49.2839C119.944 49.8139 119.728 50.2879 119.383 50.6389C119.206 50.8178 118.994 50.9596 118.762 51.0561C118.529 51.1526 118.279 51.2018 118.027 51.2009C117.712 51.2005 117.402 51.1225 117.125 50.9738C116.847 50.8251 116.61 50.6102 116.436 50.3482C116.261 50.0863 116.153 49.7853 116.123 49.4718C116.092 49.1584 116.139 48.8423 116.26 48.5514C116.38 48.2604 116.57 48.0037 116.814 47.8039C117.057 47.6041 117.346 47.4674 117.655 47.4058C117.964 47.3443 118.283 47.3598 118.585 47.4511C118.886 47.5423 119.16 47.7064 119.383 47.9289C119.734 48.2739 119.944 48.7549 119.944 49.2839Z" fill="#C0EBFB"/>
<path opacity="0.26" d="M120.327 49.4459C120.326 49.9541 120.124 50.4412 119.765 50.8006C119.406 51.1599 118.918 51.3621 118.41 51.3629C117.902 51.3623 117.415 51.1602 117.055 50.8009C116.877 50.6232 116.735 50.412 116.639 50.1795C116.542 49.947 116.493 49.6977 116.493 49.4459C116.493 49.1942 116.542 48.9449 116.639 48.7124C116.735 48.4798 116.877 48.2687 117.055 48.0909C117.233 47.9126 117.444 47.7711 117.677 47.6746C117.909 47.578 118.159 47.5283 118.41 47.5283C118.662 47.5283 118.911 47.578 119.144 47.6746C119.376 47.7711 119.588 47.9126 119.765 48.0909C120.116 48.4359 120.327 48.9169 120.327 49.4459Z" fill="#BDEAFB"/>
<path opacity="0.27" d="M120.716 49.6029C120.715 50.1109 120.513 50.5978 120.153 50.9569C119.794 51.316 119.307 51.5181 118.799 51.5189C118.291 51.5186 117.804 51.3168 117.444 50.9579C117.266 50.7802 117.124 50.569 117.028 50.3365C116.931 50.104 116.882 49.8547 116.882 49.6029C116.882 49.3511 116.931 49.1019 117.028 48.8693C117.124 48.6368 117.266 48.4256 117.444 48.2479C117.622 48.0696 117.833 47.9281 118.066 47.8315C118.298 47.735 118.547 47.6853 118.799 47.6853C119.051 47.6853 119.3 47.735 119.533 47.8315C119.765 47.9281 119.976 48.0696 120.154 48.2479C120.505 48.5929 120.716 49.0729 120.716 49.6029Z" fill="#BAE9FB"/>
<path opacity="0.28" d="M121.104 49.7538C121.105 50.1332 120.993 50.5043 120.782 50.82C120.572 51.1356 120.272 51.3817 119.922 51.5269C119.571 51.672 119.185 51.7098 118.813 51.6353C118.441 51.5609 118.1 51.3776 117.832 51.1088C117.473 50.7493 117.271 50.2617 117.271 49.7534C117.271 49.2451 117.473 48.7576 117.833 48.3983C118.192 48.0389 118.68 47.8371 119.188 47.8372C119.696 47.8373 120.184 48.0393 120.543 48.3988C120.894 48.7438 121.104 49.2248 121.104 49.7538Z" fill="#B7E8FA"/>
<path opacity="0.3" d="M121.499 49.8939C121.499 50.4239 121.283 50.8989 120.937 51.2499C120.76 51.4285 120.549 51.5701 120.316 51.6664C120.083 51.7627 119.834 51.8118 119.582 51.8109C119.074 51.8106 118.587 51.6088 118.227 51.2499C118.049 51.0722 117.907 50.861 117.811 50.6285C117.714 50.396 117.665 50.1467 117.665 49.8949C117.665 49.6431 117.714 49.3938 117.811 49.1613C117.907 48.9288 118.049 48.7176 118.227 48.5399C118.405 48.3616 118.616 48.2201 118.849 48.1235C119.081 48.027 119.33 47.9773 119.582 47.9773C119.834 47.9773 120.083 48.027 120.316 48.1235C120.548 48.2201 120.759 48.3616 120.937 48.5399C121.288 48.8849 121.499 49.3649 121.499 49.8939Z" fill="#B3E7FA"/>
<path opacity="0.31" d="M121.893 50.0288C121.893 50.5588 121.677 51.0338 121.332 51.3848C120.986 51.7348 120.506 51.9458 119.977 51.9458C119.662 51.9455 119.352 51.8677 119.074 51.7191C118.797 51.5705 118.56 51.3557 118.385 51.0937C118.21 50.8318 118.103 50.5308 118.072 50.2173C118.041 49.9039 118.088 49.5877 118.208 49.2967C118.329 49.0057 118.519 48.7489 118.763 48.549C119.006 48.3491 119.295 48.2124 119.604 48.1508C119.913 48.0892 120.232 48.1047 120.533 48.1959C120.835 48.2871 121.109 48.4513 121.332 48.6738C121.683 49.0198 121.893 49.4998 121.893 50.0288Z" fill="#B0E6FA"/>
<path opacity="0.32" d="M122.286 50.1529C122.286 50.6829 122.07 51.1579 121.724 51.5089C121.547 51.6876 121.336 51.8291 121.103 51.9254C120.87 52.0218 120.621 52.0709 120.369 52.0699C119.861 52.0696 119.374 51.8679 119.014 51.5089C118.836 51.3312 118.694 51.12 118.598 50.8875C118.501 50.655 118.452 50.4057 118.452 50.1539C118.452 49.9022 118.501 49.6529 118.598 49.4204C118.694 49.1878 118.836 48.9767 119.014 48.7989C119.192 48.6206 119.403 48.4791 119.636 48.3826C119.868 48.286 120.118 48.2363 120.369 48.2363C120.621 48.2363 120.87 48.286 121.103 48.3826C121.335 48.4791 121.547 48.6206 121.724 48.7989C122.075 49.1439 122.286 49.6239 122.286 50.1529Z" fill="#ADE5FA"/>
<path opacity="0.33" d="M122.686 50.2719C122.686 50.8019 122.47 51.2769 122.125 51.6279C121.948 51.8066 121.737 51.9481 121.504 52.0444C121.271 52.1407 121.022 52.1899 120.77 52.1889C120.455 52.1887 120.145 52.1108 119.867 51.9622C119.59 51.8136 119.353 51.5988 119.178 51.3369C119.003 51.075 118.896 50.774 118.865 50.4605C118.834 50.1471 118.881 49.8308 119.001 49.5399C119.122 49.2489 119.312 48.9921 119.556 48.7922C119.799 48.5923 120.088 48.4555 120.397 48.3939C120.706 48.3323 121.025 48.3478 121.326 48.4391C121.628 48.5303 121.902 48.6944 122.125 48.9169C122.476 49.2629 122.686 49.7429 122.686 50.2719Z" fill="#AAE4FA"/>
<path opacity="0.35" d="M123.087 50.3798C123.087 50.9098 122.871 51.3848 122.525 51.7348C122.348 51.9136 122.137 52.0553 121.904 52.1518C121.672 52.2483 121.422 52.2976 121.17 52.2968C120.662 52.2962 120.175 52.0941 119.815 51.7348C119.637 51.557 119.495 51.3459 119.399 51.1133C119.302 50.8808 119.253 50.6315 119.253 50.3798C119.253 50.128 119.302 49.8787 119.399 49.6462C119.495 49.4137 119.637 49.2025 119.815 49.0248C119.993 48.8464 120.204 48.7049 120.437 48.6084C120.669 48.5119 120.919 48.4622 121.17 48.4622C121.422 48.4622 121.671 48.5119 121.904 48.6084C122.136 48.7049 122.348 48.8464 122.525 49.0248C122.876 49.3698 123.087 49.8508 123.087 50.3798Z" fill="#A7E3F9"/>
<path opacity="0.36" d="M123.491 50.483C123.491 51.012 123.275 51.487 122.93 51.838C122.753 52.0169 122.541 52.1587 122.309 52.2552C122.076 52.3517 121.826 52.4009 121.574 52.4C121.066 52.3993 120.579 52.1972 120.219 51.838C120.041 51.6602 119.899 51.4491 119.803 51.2165C119.706 50.984 119.656 50.7347 119.656 50.483C119.656 50.2312 119.706 49.9819 119.803 49.7494C119.899 49.5169 120.041 49.3057 120.219 49.128C120.397 48.9497 120.608 48.8083 120.841 48.7118C121.073 48.6153 121.323 48.5657 121.575 48.5657C121.826 48.5657 122.076 48.6153 122.308 48.7118C122.541 48.8083 122.752 48.9497 122.93 49.128C123.281 49.473 123.491 49.954 123.491 50.483Z" fill="#A4E2F9"/>
<path opacity="0.37" d="M123.89 50.5788C123.89 51.0871 123.688 51.5745 123.328 51.9341C122.969 52.2936 122.482 52.496 121.973 52.4968C121.658 52.4966 121.348 52.4187 121.071 52.2701C120.793 52.1215 120.556 51.9067 120.381 51.6448C120.206 51.3828 120.099 51.0818 120.068 50.7684C120.037 50.4549 120.084 50.1387 120.204 49.8477C120.325 49.5567 120.515 49.2999 120.759 49.1C121.002 48.9002 121.291 48.7634 121.6 48.7018C121.909 48.6402 122.228 48.6557 122.53 48.7469C122.831 48.8381 123.105 49.0023 123.328 49.2248C123.679 49.5698 123.89 50.0498 123.89 50.5788Z" fill="#A1E1F9"/>
<path opacity="0.38" d="M124.302 50.6608C124.302 51.1908 124.086 51.6648 123.74 52.0158C123.562 52.1941 123.351 52.3356 123.119 52.4321C122.886 52.5287 122.637 52.5784 122.385 52.5784C122.133 52.5784 121.884 52.5287 121.652 52.4321C121.419 52.3356 121.208 52.1941 121.03 52.0158C120.852 51.8381 120.71 51.6269 120.614 51.3944C120.517 51.1618 120.468 50.9125 120.468 50.6608C120.468 50.409 120.517 50.1597 120.614 49.9272C120.71 49.6947 120.852 49.4835 121.03 49.3058C121.208 49.1274 121.419 48.986 121.652 48.8894C121.884 48.7929 122.133 48.7432 122.385 48.7432C122.637 48.7432 122.886 48.7929 123.119 48.8894C123.351 48.986 123.562 49.1274 123.74 49.3058C124.091 49.6508 124.302 50.1318 124.302 50.6608Z" fill="#9DE0F9"/>
<path opacity="0.4" d="M124.706 50.7418C124.705 51.25 124.503 51.7371 124.144 52.0965C123.785 52.4558 123.297 52.658 122.789 52.6588C122.281 52.6582 121.794 52.4561 121.434 52.0968C121.256 51.9191 121.114 51.7079 121.018 51.4754C120.921 51.2429 120.872 50.9936 120.872 50.7418C120.872 50.4901 120.921 50.2408 121.018 50.0083C121.114 49.7757 121.256 49.5646 121.434 49.3868C121.612 49.2085 121.823 49.067 122.056 48.9705C122.288 48.8739 122.537 48.8242 122.789 48.8242C123.041 48.8242 123.29 48.8739 123.523 48.9705C123.755 49.067 123.966 49.2085 124.144 49.3868C124.495 49.7318 124.706 50.2128 124.706 50.7418Z" fill="#9ADFF9"/>
<path opacity="0.41" d="M125.116 50.812C125.116 51.342 124.9 51.816 124.555 52.167C124.378 52.3459 124.166 52.4877 123.934 52.5842C123.701 52.6807 123.451 52.7299 123.199 52.729C122.691 52.7284 122.204 52.5263 121.844 52.167C121.666 51.9893 121.524 51.7781 121.428 51.5456C121.331 51.313 121.281 51.0638 121.281 50.812C121.281 50.5602 121.331 50.3109 121.428 50.0784C121.524 49.8459 121.666 49.6347 121.844 49.457C122.022 49.2786 122.233 49.1371 122.466 49.0406C122.698 48.944 122.948 48.8943 123.2 48.8943C123.451 48.8943 123.701 48.944 123.933 49.0406C124.166 49.1371 124.377 49.2786 124.555 49.457C124.906 49.802 125.116 50.283 125.116 50.812Z" fill="#97DEF8"/>
<path opacity="0.42" d="M125.52 50.8769C125.52 51.4069 125.304 51.8809 124.959 52.2319C124.782 52.4107 124.571 52.5525 124.338 52.649C124.105 52.7454 123.856 52.7947 123.604 52.7939C123.289 52.7937 122.979 52.7158 122.701 52.5672C122.424 52.4186 122.187 52.2038 122.012 51.9419C121.837 51.6799 121.729 51.3789 121.699 51.0655C121.668 50.752 121.715 50.4358 121.835 50.1448C121.956 49.8538 122.146 49.597 122.39 49.3972C122.633 49.1973 122.922 49.0605 123.231 48.9989C123.54 48.9373 123.859 48.9528 124.16 49.044C124.462 49.1353 124.736 49.2994 124.959 49.5219C125.31 49.8669 125.52 50.3479 125.52 50.8769Z" fill="#94DDF8"/>
<path opacity="0.43" d="M125.931 50.9309C125.931 51.4609 125.715 51.9349 125.369 52.2859C125.023 52.6369 124.543 52.8479 124.014 52.8479C123.699 52.8476 123.389 52.7698 123.112 52.6212C122.834 52.4726 122.597 52.2578 122.422 51.9958C122.247 51.7339 122.14 51.4329 122.109 51.1194C122.078 50.806 122.125 50.4898 122.245 50.1988C122.366 49.9078 122.556 49.651 122.8 49.4511C123.043 49.2512 123.332 49.1145 123.641 49.0529C123.95 48.9913 124.269 49.0068 124.571 49.098C124.872 49.1892 125.146 49.3534 125.369 49.5759C125.72 49.9209 125.931 50.4019 125.931 50.9309Z" fill="#91DCF8"/>
<path opacity="0.44" d="M126.347 50.9738C126.347 51.5038 126.131 51.9788 125.785 52.3288C125.608 52.5076 125.397 52.6494 125.164 52.7459C124.932 52.8424 124.682 52.8916 124.43 52.8908C124.115 52.8906 123.805 52.8127 123.528 52.6641C123.25 52.5155 123.013 52.3007 122.838 52.0388C122.663 51.7769 122.556 51.4759 122.525 51.1624C122.494 50.849 122.541 50.5328 122.661 50.2418C122.782 49.9508 122.972 49.694 123.216 49.4941C123.459 49.2942 123.748 49.1574 124.057 49.0958C124.366 49.0342 124.685 49.0497 124.987 49.141C125.288 49.2322 125.562 49.3963 125.785 49.6188C126.136 49.9648 126.347 50.4448 126.347 50.9738Z" fill="#8EDBF8"/>
<path opacity="0.46" d="M126.757 51.0119C126.756 51.52 126.554 52.0072 126.195 52.3665C125.836 52.7258 125.348 52.9281 124.84 52.9289C124.332 52.9282 123.845 52.7261 123.485 52.3669C123.307 52.1891 123.165 51.978 123.069 51.7454C122.972 51.5129 122.923 51.2636 122.923 51.0119C122.923 50.7601 122.972 50.5108 123.069 50.2783C123.165 50.0457 123.307 49.8346 123.485 49.6569C123.663 49.4785 123.874 49.337 124.107 49.2405C124.339 49.1439 124.588 49.0942 124.84 49.0942C125.092 49.0942 125.341 49.1439 125.574 49.2405C125.806 49.337 126.017 49.4785 126.195 49.6569C126.546 50.0019 126.757 50.4829 126.757 51.0119Z" fill="#8BDAF8"/>
<path opacity="0.47" d="M127.169 51.0438C127.169 51.5738 126.953 52.0488 126.607 52.3998C126.43 52.5785 126.219 52.72 125.986 52.8163C125.753 52.9126 125.504 52.9618 125.252 52.9608C124.744 52.9605 124.257 52.7588 123.897 52.3998C123.719 52.2221 123.577 52.0109 123.48 51.7782C123.384 51.5456 123.334 51.2962 123.334 51.0443C123.334 50.7924 123.384 50.543 123.48 50.3104C123.577 50.0778 123.719 49.8666 123.897 49.6888C124.075 49.5105 124.286 49.369 124.519 49.2725C124.751 49.1759 125 49.1262 125.252 49.1262C125.504 49.1262 125.753 49.1759 125.986 49.2725C126.218 49.369 126.429 49.5105 126.607 49.6888C126.958 50.0348 127.169 50.5148 127.169 51.0438Z" fill="#87D9F7"/>
<path opacity="0.48" d="M127.583 51.0658C127.583 51.5958 127.367 52.0698 127.021 52.4208C126.844 52.5996 126.633 52.7414 126.4 52.8378C126.167 52.9343 125.918 52.9836 125.666 52.9828C125.158 52.9822 124.671 52.7801 124.311 52.4208C124.133 52.2431 123.991 52.0319 123.895 51.7994C123.798 51.5669 123.749 51.3176 123.749 51.0658C123.749 50.814 123.798 50.5647 123.895 50.3322C123.991 50.0997 124.133 49.8885 124.311 49.7108C124.489 49.5325 124.7 49.391 124.933 49.2944C125.165 49.1979 125.414 49.1482 125.666 49.1482C125.918 49.1482 126.167 49.1979 126.4 49.2944C126.632 49.391 126.843 49.5325 127.021 49.7108C127.372 50.0558 127.583 50.5368 127.583 51.0658Z" fill="#84D8F7"/>
<path opacity="0.49" d="M127.999 51.0819C127.998 51.5901 127.796 52.0772 127.437 52.4366C127.077 52.7959 126.59 52.9981 126.082 52.9989C125.574 52.9983 125.087 52.7962 124.727 52.4369C124.549 52.2592 124.407 52.048 124.311 51.8155C124.214 51.583 124.165 51.3337 124.165 51.0819C124.165 50.8302 124.214 50.5809 124.311 50.3483C124.407 50.1158 124.549 49.9046 124.727 49.7269C124.905 49.5486 125.116 49.4071 125.349 49.3106C125.581 49.214 125.83 49.1643 126.082 49.1643C126.334 49.1643 126.583 49.214 126.816 49.3106C127.048 49.4071 127.259 49.5486 127.437 49.7269C127.788 50.0719 127.999 50.5529 127.999 51.0819Z" fill="#81D7F7"/>
<path opacity="0.51" d="M128.415 51.0878C128.415 51.6168 128.199 52.0918 127.853 52.4428C127.676 52.6214 127.465 52.763 127.232 52.8593C126.999 52.9556 126.75 53.0047 126.498 53.0038C125.99 53.0034 125.503 52.8017 125.143 52.4428C124.965 52.2651 124.823 52.0539 124.727 51.8214C124.63 51.5888 124.581 51.3395 124.581 51.0878C124.581 50.836 124.63 50.5867 124.727 50.3542C124.823 50.1217 124.965 49.9105 125.143 49.7328C125.321 49.5545 125.532 49.413 125.765 49.3164C125.997 49.2199 126.246 49.1702 126.498 49.1702C126.75 49.1702 126.999 49.2199 127.232 49.3164C127.464 49.413 127.675 49.5545 127.853 49.7328C128.204 50.0778 128.415 50.5578 128.415 51.0878Z" fill="#7ED6F7"/>
<path opacity="0.52" d="M128.825 51.082C128.825 51.612 128.609 52.086 128.264 52.437C128.087 52.6159 127.875 52.7578 127.643 52.8542C127.41 52.9507 127.16 52.9999 126.908 52.999C126.4 52.9984 125.913 52.7963 125.553 52.437C125.375 52.2593 125.233 52.0481 125.137 51.8156C125.04 51.5831 124.99 51.3338 124.99 51.082C124.99 50.8302 125.04 50.5809 125.137 50.3484C125.233 50.1159 125.375 49.9047 125.553 49.727C125.731 49.5486 125.942 49.4071 126.175 49.3106C126.407 49.214 126.657 49.1643 126.909 49.1643C127.16 49.1643 127.41 49.214 127.642 49.3106C127.875 49.4071 128.086 49.5486 128.264 49.727C128.615 50.072 128.825 50.553 128.825 51.082Z" fill="#7BD5F7"/>
<path opacity="0.53" d="M129.241 51.071C129.241 51.601 129.025 52.076 128.68 52.427C128.334 52.777 127.853 52.988 127.324 52.988C126.816 52.9877 126.329 52.7859 125.969 52.427C125.791 52.2493 125.649 52.0381 125.553 51.8056C125.456 51.5731 125.406 51.3238 125.406 51.072C125.406 50.8202 125.456 50.5709 125.553 50.3384C125.649 50.1059 125.791 49.8947 125.969 49.717C126.147 49.5386 126.358 49.3971 126.591 49.3006C126.823 49.204 127.073 49.1543 127.325 49.1543C127.576 49.1543 127.826 49.204 128.058 49.3006C128.291 49.3971 128.502 49.5386 128.68 49.717C129.031 50.062 129.241 50.542 129.241 51.071Z" fill="#78D4F7"/>
<path opacity="0.54" d="M129.657 51.0549C129.657 51.5849 129.441 52.0599 129.096 52.4099C128.919 52.5888 128.707 52.7307 128.475 52.8271C128.242 52.9236 127.992 52.9728 127.74 52.9719C127.232 52.9713 126.745 52.7692 126.385 52.4099C126.206 52.2324 126.065 52.0213 125.968 51.7887C125.871 51.5562 125.821 51.3068 125.821 51.0549C125.821 50.803 125.871 50.5536 125.968 50.3211C126.065 50.0885 126.206 49.8774 126.385 49.6999C126.563 49.5215 126.774 49.38 127.007 49.2835C127.239 49.1869 127.489 49.1372 127.741 49.1372C127.993 49.1372 128.242 49.1869 128.474 49.2835C128.707 49.38 128.918 49.5215 129.096 49.6999C129.447 50.0459 129.657 50.5259 129.657 51.0549Z" fill="#74D3F6"/>
<path opacity="0.56" d="M130.073 51.0288C130.073 51.5568 129.857 52.0318 129.512 52.3828C129.335 52.5617 129.123 52.7036 128.891 52.8C128.658 52.8965 128.408 52.9457 128.156 52.9448C127.648 52.9442 127.161 52.7421 126.801 52.3828C126.622 52.2053 126.481 51.9942 126.384 51.7616C126.287 51.5291 126.237 51.2797 126.237 51.0278C126.237 50.7759 126.287 50.5265 126.384 50.294C126.481 50.0614 126.622 49.8503 126.801 49.6728C126.979 49.4944 127.19 49.3529 127.423 49.2564C127.655 49.1598 127.905 49.1101 128.157 49.1101C128.409 49.1101 128.658 49.1598 128.89 49.2564C129.123 49.3529 129.334 49.4944 129.512 49.6728C129.863 50.0178 130.073 50.4998 130.073 51.0288Z" fill="#71D2F6"/>
<path opacity="0.57" d="M130.483 50.9958C130.483 51.5248 130.267 51.9998 129.922 52.3508C129.576 52.7008 129.096 52.9128 128.566 52.9128C128.251 52.9124 127.941 52.8344 127.664 52.6857C127.386 52.537 127.15 52.3221 126.975 52.0602C126.8 51.7982 126.692 51.4972 126.662 51.1838C126.631 50.8704 126.678 50.5542 126.799 50.2633C126.919 49.9723 127.11 49.7156 127.353 49.5158C127.596 49.316 127.885 49.1793 128.194 49.1178C128.503 49.0562 128.822 49.0717 129.124 49.163C129.425 49.2542 129.699 49.4183 129.922 49.6408C130.273 49.9858 130.483 50.4668 130.483 50.9958Z" fill="#6ED1F6"/>
<path opacity="0.58" d="M130.899 50.9468C130.899 51.4768 130.683 51.9508 130.338 52.3018C130.161 52.4808 129.949 52.6226 129.717 52.7191C129.484 52.8155 129.234 52.8648 128.982 52.8638C128.474 52.8632 127.987 52.6611 127.627 52.3018C127.449 52.1244 127.307 51.9133 127.211 51.6806C127.114 51.448 127.065 51.1986 127.066 50.9468C127.065 50.5672 127.177 50.1958 127.387 49.8798C127.597 49.5638 127.897 49.3175 128.248 49.1722C128.599 49.027 128.985 48.9893 129.357 49.064C129.729 49.1388 130.071 49.3225 130.338 49.5918C130.689 49.9368 130.899 50.4178 130.899 50.9468Z" fill="#6BD0F6"/>
<path opacity="0.59" d="M131.315 50.899C131.315 51.428 131.099 51.903 130.754 52.254C130.577 52.4327 130.365 52.5744 130.133 52.6707C129.9 52.767 129.65 52.816 129.398 52.815C128.89 52.8146 128.403 52.6129 128.043 52.254C127.865 52.0766 127.723 51.8654 127.627 51.6328C127.53 51.4002 127.481 51.1507 127.482 50.899C127.481 50.5193 127.593 50.1479 127.803 49.8319C128.013 49.5159 128.313 49.2696 128.664 49.1244C129.015 48.9791 129.401 48.9415 129.773 49.0162C130.145 49.0909 130.487 49.2746 130.754 49.544C131.105 49.889 131.315 50.369 131.315 50.899Z" fill="#68CFF6"/>
<path opacity="0.6" d="M131.725 50.839C131.725 51.369 131.509 51.843 131.164 52.194C130.819 52.545 130.338 52.756 129.809 52.756C129.279 52.756 128.804 52.54 128.453 52.195C128.274 52.0174 128.133 51.8061 128.036 51.5733C127.94 51.3405 127.891 51.0909 127.892 50.839C127.891 50.4595 128.003 50.0884 128.214 49.7728C128.424 49.4571 128.724 49.2111 129.074 49.0659C129.425 48.9207 129.811 48.8829 130.183 48.9574C130.555 49.0318 130.896 49.2151 131.164 49.484C131.515 49.83 131.725 50.31 131.725 50.839Z" fill="#65CEF5"/>
<path opacity="0.62" d="M132.141 50.769C132.141 51.298 131.926 51.773 131.58 52.124C131.234 52.475 130.754 52.686 130.225 52.686C129.91 52.6858 129.6 52.6079 129.322 52.4593C129.045 52.3107 128.808 52.0959 128.633 51.834C128.458 51.572 128.351 51.271 128.32 50.9576C128.289 50.6441 128.336 50.3279 128.456 50.0369C128.577 49.7459 128.767 49.4891 129.011 49.2893C129.254 49.0894 129.543 48.9526 129.852 48.891C130.161 48.8294 130.48 48.8449 130.781 48.9361C131.083 49.0274 131.357 49.1915 131.58 49.414C131.931 49.759 132.141 50.24 132.141 50.769Z" fill="#62CDF5"/>
<path opacity="0.63" d="M132.552 50.693C132.551 51.2012 132.349 51.6883 131.99 52.0477C131.631 52.407 131.143 52.6092 130.635 52.61C130.127 52.6092 129.64 52.407 129.281 52.0477C128.921 51.6883 128.719 51.2012 128.718 50.693C128.718 50.164 128.934 49.689 129.28 49.338C129.458 49.1597 129.669 49.0182 129.902 48.9216C130.134 48.8251 130.383 48.7754 130.635 48.7754C130.887 48.7754 131.136 48.8251 131.369 48.9216C131.601 49.0182 131.813 49.1597 131.99 49.338C132.341 49.684 132.552 50.164 132.552 50.693Z" fill="#5ECCF5"/>
<path opacity="0.64" d="M132.962 50.6068C132.961 51.115 132.759 51.6021 132.4 51.9615C132.04 52.3208 131.553 52.523 131.045 52.5238C130.537 52.5232 130.05 52.3211 129.69 51.9618C129.511 51.7845 129.37 51.5734 129.273 51.3407C129.177 51.1081 129.127 50.8587 129.128 50.6068C129.128 50.0768 129.344 49.6028 129.69 49.2518C129.868 49.0735 130.079 48.932 130.312 48.8355C130.544 48.7389 130.793 48.6892 131.045 48.6892C131.297 48.6892 131.546 48.7389 131.779 48.8355C132.011 48.932 132.222 49.0735 132.4 49.2518C132.751 49.5968 132.962 50.0778 132.962 50.6068Z" fill="#5BCBF5"/>
<path opacity="0.65" d="M133.372 50.5148C133.371 51.023 133.169 51.5101 132.81 51.8694C132.45 52.2288 131.963 52.431 131.455 52.4318C130.947 52.4312 130.46 52.2291 130.1 51.8698C129.921 51.6924 129.78 51.4813 129.683 51.2487C129.587 51.0161 129.537 50.7666 129.538 50.5148C129.538 49.9858 129.754 49.5108 130.1 49.1598C130.278 48.9815 130.489 48.84 130.722 48.7434C130.954 48.6469 131.203 48.5972 131.455 48.5972C131.707 48.5972 131.956 48.6469 132.189 48.7434C132.421 48.84 132.632 48.9815 132.81 49.1598C133.161 49.5058 133.372 49.9858 133.372 50.5148Z" fill="#58CAF5"/>
<path opacity="0.67" d="M133.776 50.4129C133.776 50.9419 133.56 51.4169 133.215 51.7679C132.869 52.1179 132.389 52.3299 131.859 52.3299C131.351 52.3293 130.864 52.1272 130.504 51.7679C130.326 51.5905 130.184 51.3793 130.088 51.1467C129.991 50.9141 129.942 50.6647 129.943 50.4129C129.942 50.0333 130.054 49.6618 130.264 49.3458C130.474 49.0298 130.774 48.7836 131.125 48.6383C131.476 48.4931 131.862 48.4554 132.234 48.5301C132.606 48.6048 132.948 48.7885 133.215 49.0579C133.566 49.4029 133.776 49.8839 133.776 50.4129Z" fill="#55C9F4"/>
<path opacity="0.68" d="M134.186 50.3048C134.186 50.8338 133.97 51.3088 133.625 51.6598C133.448 51.8384 133.237 51.98 133.004 52.0763C132.771 52.1726 132.522 52.2217 132.27 52.2208C131.74 52.2208 131.265 52.0048 130.914 51.6598C130.736 51.4824 130.594 51.2712 130.498 51.0386C130.401 50.806 130.352 50.5565 130.353 50.3048C130.353 49.9254 130.465 49.5543 130.675 49.2386C130.886 48.9229 131.185 48.6769 131.536 48.5317C131.886 48.3865 132.272 48.3488 132.644 48.4232C133.016 48.4976 133.358 48.6809 133.625 48.9498C133.976 49.2948 134.186 49.7748 134.186 50.3048Z" fill="#52C8F4"/>
<path opacity="0.69" d="M134.593 50.1858C134.593 50.7148 134.377 51.1898 134.031 51.5408C133.854 51.7196 133.643 51.8614 133.41 51.9578C133.178 52.0543 132.928 52.1036 132.676 52.1028C132.168 52.102 131.681 51.8998 131.322 51.5404C130.962 51.1811 130.76 50.694 130.759 50.1858C130.76 49.6776 130.962 49.1905 131.322 48.8312C131.681 48.4718 132.168 48.2696 132.676 48.2688C133.205 48.2688 133.68 48.4848 134.031 48.8308C134.382 49.1758 134.593 49.6568 134.593 50.1858Z" fill="#4FC7F4"/>
<path opacity="0.7" d="M134.991 50.0558C134.991 50.5858 134.775 51.0608 134.43 51.4108C134.253 51.5897 134.042 51.7315 133.809 51.828C133.576 51.9245 133.326 51.9737 133.074 51.9728C132.566 51.9724 132.079 51.7707 131.719 51.4118C131.54 51.2343 131.398 51.023 131.302 50.7902C131.206 50.5575 131.156 50.3078 131.157 50.0558C131.156 49.6762 131.268 49.3048 131.479 48.9889C131.689 48.673 131.989 48.4268 132.34 48.2816C132.69 48.1364 133.076 48.0987 133.449 48.1734C133.821 48.248 134.163 48.4316 134.43 48.7008C134.781 49.0468 134.991 49.5268 134.991 50.0558Z" fill="#4CC6F4"/>
<path opacity="0.72" d="M135.397 49.9209C135.397 50.4509 135.181 50.9259 134.836 51.2769C134.659 51.4556 134.447 51.5972 134.215 51.6936C133.982 51.7899 133.732 51.8389 133.48 51.8379C133.165 51.8375 132.855 51.7595 132.578 51.6107C132.3 51.462 132.064 51.2472 131.889 50.9852C131.714 50.7232 131.607 50.4222 131.576 50.1088C131.545 49.7954 131.592 49.4792 131.713 49.1883C131.833 48.8974 132.024 48.6407 132.267 48.4409C132.51 48.2411 132.799 48.1043 133.108 48.0428C133.417 47.9813 133.736 47.9968 134.038 48.088C134.339 48.1793 134.613 48.3434 134.836 48.5659C135.187 48.9119 135.397 49.3919 135.397 49.9209Z" fill="#48C5F4"/>
<path opacity="0.73" d="M135.796 49.7759C135.796 50.3049 135.58 50.7799 135.234 51.1309C135.057 51.3095 134.846 51.4511 134.613 51.5474C134.38 51.6437 134.131 51.6928 133.879 51.6919C133.371 51.6915 132.884 51.4898 132.524 51.1309C132.345 50.9535 132.204 50.7424 132.107 50.5098C132.011 50.2772 131.961 50.0277 131.962 49.7759C131.963 49.2677 132.165 48.7806 132.525 48.4212C132.884 48.0619 133.371 47.8597 133.879 47.8589C134.408 47.8589 134.883 48.0749 135.234 48.4199C135.585 48.7649 135.796 49.2469 135.796 49.7759Z" fill="#45C4F3"/>
<path opacity="0.74" d="M136.196 49.624C136.196 50.154 135.98 50.629 135.635 50.98C135.458 51.1587 135.246 51.3004 135.014 51.3967C134.781 51.493 134.531 51.5421 134.279 51.541C133.771 51.5407 133.284 51.3389 132.924 50.98C132.745 50.8025 132.604 50.5913 132.507 50.3585C132.411 50.1257 132.361 49.876 132.362 49.624C132.363 49.116 132.566 48.6291 132.925 48.27C133.284 47.9109 133.771 47.7088 134.279 47.708C134.808 47.708 135.284 47.923 135.635 48.269C135.986 48.615 136.196 49.095 136.196 49.624Z" fill="#42C3F3"/>
<path opacity="0.75" d="M136.591 49.4618C136.59 49.97 136.388 50.4571 136.029 50.8164C135.669 51.1758 135.182 51.378 134.674 51.3788C134.166 51.3782 133.679 51.1761 133.319 50.8168C133.14 50.6395 132.999 50.4283 132.902 50.1957C132.806 49.9631 132.756 49.7136 132.757 49.4618C132.757 48.9328 132.973 48.4578 133.319 48.1068C133.497 47.9285 133.708 47.787 133.941 47.6904C134.173 47.5939 134.422 47.5442 134.674 47.5442C134.926 47.5442 135.175 47.5939 135.408 47.6904C135.64 47.787 135.851 47.9285 136.029 48.1068C136.38 48.4528 136.591 48.9328 136.591 49.4618Z" fill="#3FC2F3"/>
<path opacity="0.77" d="M136.985 49.295C136.985 49.825 136.769 50.299 136.424 50.65C136.247 50.8289 136.035 50.9707 135.803 51.0672C135.57 51.1637 135.32 51.2129 135.068 51.212C134.56 51.2114 134.073 51.0093 133.713 50.65C133.534 50.4726 133.393 50.2614 133.297 50.0288C133.2 49.7962 133.151 49.5467 133.152 49.295C133.151 48.9153 133.263 48.5439 133.473 48.2279C133.683 47.9119 133.983 47.6656 134.334 47.5204C134.685 47.3751 135.071 47.3375 135.443 47.4122C135.815 47.4869 136.157 47.6706 136.424 47.94C136.775 48.285 136.985 48.766 136.985 49.295Z" fill="#3CC1F3"/>
<path opacity="0.78" d="M137.378 49.117C137.378 49.646 137.162 50.121 136.816 50.472C136.639 50.6508 136.428 50.7925 136.195 50.889C135.963 50.9855 135.713 51.0347 135.461 51.034C134.953 51.0333 134.466 50.8312 134.106 50.472C133.927 50.2946 133.786 50.0835 133.689 49.8509C133.593 49.6183 133.543 49.3688 133.544 49.117C133.545 48.6088 133.747 48.1216 134.107 47.7623C134.466 47.403 134.953 47.2007 135.461 47.2C135.99 47.2 136.465 47.416 136.816 47.762C137.167 48.107 137.378 48.588 137.378 49.117Z" fill="#39C0F3"/>
<path opacity="0.79" d="M137.766 48.9278C137.766 49.4568 137.55 49.9318 137.205 50.2828C137.028 50.4616 136.817 50.6034 136.584 50.6999C136.351 50.7963 136.102 50.8456 135.85 50.8448C135.32 50.8448 134.845 50.6288 134.494 50.2828C134.316 50.1054 134.174 49.8942 134.078 49.6616C133.981 49.429 133.932 49.1796 133.933 48.9278C133.932 48.5484 134.044 48.1773 134.255 47.8616C134.465 47.546 134.765 47.2999 135.115 47.1547C135.466 47.0096 135.852 46.9718 136.224 47.0462C136.596 47.1207 136.937 47.304 137.205 47.5728C137.556 47.9178 137.766 48.3988 137.766 48.9278Z" fill="#36BFF2"/>
<path opacity="0.8" d="M138.155 48.7339C138.155 49.2629 137.939 49.7379 137.594 50.0889C137.248 50.4389 136.767 50.6499 136.238 50.6499C135.73 50.6496 135.243 50.4478 134.883 50.0889C134.704 49.9114 134.563 49.7002 134.466 49.4674C134.37 49.2346 134.32 48.9849 134.321 48.7329C134.322 48.2249 134.525 47.738 134.884 47.3789C135.243 47.0198 135.73 46.8177 136.238 46.8169C136.767 46.8169 137.243 47.0329 137.594 47.3779C137.945 47.7229 138.155 48.2049 138.155 48.7339Z" fill="#32BEF2"/>
<path opacity="0.81" d="M138.54 48.5288C138.539 49.0368 138.337 49.5237 137.978 49.8828C137.618 50.242 137.131 50.444 136.623 50.4448C136.115 50.4442 135.628 50.2421 135.268 49.8828C135.09 49.7055 134.948 49.4944 134.851 49.2618C134.755 49.0291 134.706 48.7797 134.706 48.5278C134.707 48.0197 134.909 47.5325 135.269 47.1732C135.628 46.8139 136.115 46.6116 136.623 46.6108C137.152 46.6108 137.627 46.8268 137.978 47.1728C138.329 47.5178 138.54 47.9998 138.54 48.5288Z" fill="#2FBDF2"/>
<path opacity="0.83" d="M138.917 48.3118C138.917 48.8418 138.701 49.3158 138.355 49.6668C138.178 49.8456 137.967 49.9873 137.734 50.0838C137.502 50.1803 137.252 50.2296 137 50.2288C136.492 50.2282 136.005 50.0261 135.645 49.6668C135.466 49.4894 135.325 49.2783 135.228 49.0457C135.132 48.8131 135.082 48.5636 135.083 48.3118C135.084 47.8036 135.286 47.3165 135.646 46.9571C136.005 46.5978 136.492 46.3956 137 46.3948C137.529 46.3948 138.004 46.6108 138.355 46.9568C138.706 47.3018 138.917 47.7828 138.917 48.3118Z" fill="#2CBCF2"/>
<path opacity="0.84" d="M139.296 48.0908C139.296 48.6208 139.08 49.0948 138.734 49.4458C138.557 49.6246 138.346 49.7664 138.113 49.8629C137.88 49.9593 137.631 50.0086 137.379 50.0078C136.871 50.0072 136.384 49.8051 136.024 49.4458C135.845 49.2685 135.704 49.0574 135.607 48.8248C135.511 48.5921 135.461 48.3427 135.462 48.0908C135.463 47.5827 135.665 47.0955 136.025 46.7362C136.384 46.3768 136.871 46.1746 137.379 46.1738C137.908 46.1738 138.383 46.3898 138.734 46.7358C139.085 47.0808 139.296 47.5618 139.296 48.0908Z" fill="#29BBF2"/>
<path opacity="0.85" d="M139.673 47.8638C139.673 48.3938 139.457 48.8678 139.111 49.2188C138.934 49.3976 138.723 49.5393 138.49 49.6358C138.257 49.7323 138.008 49.7816 137.756 49.7808C137.248 49.7802 136.761 49.5781 136.401 49.2188C136.222 49.0414 136.081 48.8303 135.984 48.5977C135.888 48.3651 135.838 48.1156 135.839 47.8638C135.84 47.3556 136.042 46.8685 136.401 46.5091C136.761 46.1498 137.248 45.9476 137.756 45.9468C138.285 45.9468 138.76 46.1628 139.111 46.5088C139.462 46.8538 139.673 47.3348 139.673 47.8638Z" fill="#26BAF1"/>
<path opacity="0.86" d="M140.046 47.621C140.045 48.1292 139.843 48.6163 139.484 48.9756C139.124 49.335 138.637 49.5372 138.129 49.538C137.621 49.5374 137.134 49.3353 136.774 48.976C136.595 48.7986 136.454 48.5875 136.357 48.3549C136.261 48.1223 136.211 47.8728 136.212 47.621C136.212 47.091 136.428 46.617 136.774 46.266C136.952 46.0876 137.163 45.9462 137.396 45.8496C137.628 45.7531 137.877 45.7034 138.129 45.7034C138.381 45.7034 138.63 45.7531 138.863 45.8496C139.095 45.9462 139.306 46.0876 139.484 46.266C139.835 46.611 140.046 47.092 140.046 47.621Z" fill="#23B9F1"/>
<path opacity="0.88" d="M140.413 47.373C140.412 47.881 140.21 48.3678 139.85 48.727C139.491 49.0861 139.004 49.2882 138.496 49.289C137.988 49.2886 137.501 49.0869 137.141 48.728C136.962 48.5506 136.821 48.3395 136.724 48.1069C136.628 47.8743 136.578 47.6248 136.579 47.373C136.579 46.843 136.795 46.368 137.141 46.017C137.319 45.8386 137.53 45.6971 137.763 45.6006C137.995 45.504 138.244 45.4543 138.496 45.4543C138.748 45.4543 138.997 45.504 139.23 45.6006C139.462 45.6971 139.673 45.8386 139.851 46.017C140.202 46.363 140.413 46.843 140.413 47.373Z" fill="#1FB8F1"/>
<path opacity="0.89" d="M140.78 47.1189C140.78 47.6489 140.564 48.1229 140.219 48.4739C139.874 48.8249 139.392 49.0359 138.863 49.0359C138.355 49.0353 137.868 48.8332 137.508 48.4739C137.33 48.2966 137.188 48.0854 137.091 47.8528C136.995 47.6202 136.946 47.3707 136.946 47.1189C136.947 46.6107 137.149 46.1236 137.509 45.7643C137.868 45.4049 138.355 45.2027 138.863 45.2019C139.392 45.2019 139.868 45.4179 140.219 45.7639C140.57 46.1089 140.78 46.5899 140.78 47.1189Z" fill="#1CB7F1"/>
<path opacity="0.9" d="M141.141 46.8539C141.141 47.3838 140.926 47.8588 140.58 48.2098C140.403 48.3885 140.192 48.53 139.959 48.6264C139.726 48.7227 139.477 48.7718 139.225 48.7708C138.695 48.7708 138.22 48.5548 137.869 48.2098C137.69 48.0323 137.549 47.821 137.452 47.5882C137.356 47.3554 137.307 47.1058 137.308 46.8539C137.307 46.4744 137.419 46.1033 137.63 45.7877C137.84 45.472 138.14 45.2259 138.49 45.0808C138.841 44.9356 139.227 44.8978 139.599 44.9723C139.971 45.0467 140.312 45.23 140.58 45.4989C140.931 45.8449 141.141 46.3249 141.141 46.8539Z" fill="#19B6F1"/>
<path opacity="0.91" d="M141.505 46.579C141.504 47.0872 141.302 47.5743 140.943 47.9336C140.583 48.293 140.096 48.4952 139.588 48.496C139.08 48.4954 138.593 48.2933 138.233 47.934C138.054 47.7567 137.913 47.5455 137.816 47.3129C137.72 47.0803 137.67 46.8308 137.671 46.579C137.671 46.049 137.887 45.575 138.233 45.224C138.411 45.0457 138.622 44.9042 138.855 44.8076C139.087 44.7111 139.336 44.6614 139.588 44.6614C139.84 44.6614 140.089 44.7111 140.322 44.8076C140.554 44.9042 140.765 45.0457 140.943 45.224C141.294 45.569 141.505 46.05 141.505 46.579Z" fill="#16B5F0"/>
<path opacity="0.93" d="M141.86 46.2928C141.86 46.8218 141.644 47.2968 141.299 47.6478C141.122 47.8267 140.91 47.9685 140.678 48.065C140.445 48.1615 140.195 48.2107 139.943 48.2098C139.435 48.2092 138.948 48.0071 138.588 47.6478C138.409 47.4704 138.268 47.2592 138.172 47.0266C138.075 46.794 138.026 46.5445 138.027 46.2928C138.026 45.9131 138.138 45.5417 138.348 45.2257C138.558 44.9097 138.858 44.6634 139.209 44.5182C139.56 44.3729 139.946 44.3353 140.318 44.41C140.69 44.4847 141.032 44.6684 141.299 44.9378C141.65 45.2828 141.86 45.7638 141.86 46.2928Z" fill="#13B4F0"/>
<path opacity="0.94" d="M142.212 46.001C142.212 46.531 141.996 47.006 141.65 47.357C141.473 47.5356 141.262 47.6772 141.029 47.7735C140.796 47.8698 140.547 47.9189 140.295 47.918C139.787 47.9176 139.3 47.7159 138.94 47.357C138.761 47.1795 138.619 46.9682 138.523 46.7354C138.426 46.5026 138.377 46.253 138.378 46.001C138.379 45.4928 138.581 45.0057 138.941 44.6463C139.3 44.287 139.787 44.0848 140.295 44.084C140.824 44.084 141.299 44.3 141.65 44.646C142.001 44.992 142.212 45.472 142.212 46.001Z" fill="#10B3F0"/>
<path opacity="0.95" d="M142.557 45.6988C142.557 46.2278 142.342 46.7028 141.996 47.0538C141.819 47.2326 141.608 47.3744 141.375 47.4709C141.142 47.5673 140.893 47.6166 140.641 47.6158C140.111 47.6158 139.636 47.3998 139.285 47.0538C139.107 46.8764 138.965 46.6652 138.869 46.4326C138.772 46.2 138.723 45.9506 138.724 45.6988C138.723 45.3194 138.835 44.9483 139.046 44.6326C139.256 44.3169 139.556 44.0709 139.906 43.9257C140.257 43.7806 140.643 43.7428 141.015 43.8172C141.387 43.8917 141.728 44.075 141.996 44.3438C142.347 44.6888 142.557 45.1698 142.557 45.6988Z" fill="#0DB2F0"/>
<path opacity="0.96" d="M142.903 45.3908C142.903 45.9208 142.687 46.3948 142.342 46.7458C142.165 46.9248 141.953 47.0666 141.721 47.1631C141.488 47.2596 141.238 47.3088 140.986 47.3078C140.478 47.3072 139.991 47.1051 139.631 46.7458C139.273 46.3859 139.072 45.8987 139.072 45.3908C139.072 44.883 139.273 44.3958 139.631 44.0358C139.809 43.8575 140.02 43.716 140.253 43.6194C140.485 43.5228 140.735 43.4731 140.987 43.4731C141.238 43.4731 141.488 43.5228 141.72 43.6194C141.953 43.716 142.164 43.8575 142.342 44.0358C142.693 44.3808 142.903 44.8618 142.903 45.3908Z" fill="#09B1F0"/>
<path opacity="0.98" d="M143.237 45.0718C143.237 45.6018 143.021 46.0768 142.676 46.4278C142.499 46.6066 142.287 46.7482 142.054 46.8445C141.822 46.9408 141.572 46.9899 141.32 46.9888C140.812 46.9885 140.325 46.7867 139.965 46.4278C139.607 46.0677 139.406 45.5806 139.406 45.0728C139.406 44.5651 139.607 44.0779 139.965 43.7178C140.143 43.5395 140.354 43.398 140.587 43.3014C140.819 43.2049 141.069 43.1551 141.32 43.155C141.572 43.1549 141.822 43.2045 142.054 43.3009C142.287 43.3973 142.498 43.5386 142.676 43.7168C143.027 44.0628 143.237 44.5428 143.237 45.0718Z" fill="#06B0EF"/>
<path opacity="0.99" d="M143.571 44.7429C143.571 45.2729 143.355 45.7469 143.01 46.0979C142.833 46.2768 142.622 46.4187 142.389 46.5152C142.156 46.6116 141.906 46.6609 141.654 46.6599C141.146 46.6593 140.659 46.4572 140.299 46.0979C140.121 45.9206 139.979 45.7095 139.882 45.4769C139.786 45.2442 139.737 44.9948 139.737 44.7429C139.738 44.2348 139.94 43.7476 140.3 43.3883C140.659 43.0289 141.146 42.8267 141.654 42.8259C142.183 42.8259 142.659 43.0419 143.01 43.3879C143.361 43.7329 143.571 44.2139 143.571 44.7429Z" fill="#03AFEF"/>
<path d="M143.907 44.4029C143.907 44.9329 143.691 45.4069 143.346 45.7579C143.169 45.9368 142.958 46.0787 142.725 46.1752C142.492 46.2716 142.242 46.3209 141.99 46.3199C141.482 46.3193 140.995 46.1172 140.635 45.7579C140.456 45.5806 140.315 45.3695 140.218 45.1368C140.122 44.9042 140.072 44.6548 140.073 44.4029C140.072 44.0231 140.183 43.6514 140.394 43.3352C140.604 43.019 140.904 42.7725 141.255 42.6272C141.606 42.482 141.992 42.4444 142.365 42.5193C142.737 42.5942 143.079 42.7782 143.346 43.0479C143.697 43.3929 143.907 43.8739 143.907 44.4029Z" fill="#00AEEF"/>
</g>
</g>
<defs>
<clipPath id="clip0_163_30">
<rect width="160" height="56" fill="white"/>
</clipPath>
</defs>
</svg>
