<svg width="32" height="32" viewBox="0 0 32 32" fill="none" xmlns="http://www.w3.org/2000/svg">
<path d="M16.5 29C23.4036 29 29 23.4036 29 16.5C29 9.59644 23.4036 4 16.5 4C9.59644 4 4 9.59644 4 16.5C4 23.4036 9.59644 29 16.5 29Z" fill="url(#paint0_linear_170_184)"/>
<path d="M12.4619 17.4135L13.9449 21.5183C13.9449 21.5183 14.1304 21.9023 14.3289 21.9023C14.5274 21.9023 17.4805 18.8303 17.4805 18.8303L20.7643 12.4875L12.5148 16.3539L12.4619 17.4135Z" fill="#C8DAEA"/>
<path d="M14.4276 18.4666L14.1429 21.4922C14.1429 21.4922 14.0238 22.4193 14.9506 21.4922C15.8775 20.5651 16.7647 19.8502 16.7647 19.8502" fill="#A9C6D8"/>
<path d="M12.4883 17.5603L9.43771 16.5663C9.43771 16.5663 9.07313 16.4184 9.19053 16.083C9.21469 16.0138 9.26344 15.955 9.40928 15.8538C10.0852 15.3827 21.9203 11.1288 21.9203 11.1288C21.9203 11.1288 22.2545 11.0162 22.4516 11.0911C22.5003 11.1062 22.5442 11.134 22.5787 11.1716C22.6132 11.2092 22.6371 11.2553 22.6479 11.3052C22.6692 11.3933 22.6781 11.4839 22.6744 11.5745C22.6734 11.6528 22.664 11.7254 22.6568 11.8393C22.5847 13.0023 20.4276 21.6823 20.4276 21.6823C20.4276 21.6823 20.2985 22.1902 19.8362 22.2076C19.7225 22.2113 19.6093 22.192 19.5033 22.151C19.3972 22.11 19.3005 22.048 19.219 21.9688C18.3116 21.1883 15.1753 19.0806 14.4823 18.6171C14.4667 18.6064 14.4535 18.5925 14.4437 18.5764C14.4339 18.5602 14.4276 18.5421 14.4254 18.5233C14.4157 18.4745 14.4689 18.4139 14.4689 18.4139C14.4689 18.4139 19.9299 13.5598 20.0752 13.0502C20.0865 13.0107 20.044 12.9912 19.9869 13.0085C19.6242 13.142 13.3365 17.1127 12.6425 17.5509C12.5926 17.566 12.5398 17.5692 12.4883 17.5603Z" fill="white"/>
<defs>
<linearGradient id="paint0_linear_170_184" x1="16.5" y1="29" x2="16.5" y2="4" gradientUnits="userSpaceOnUse">
<stop stop-color="#1D93D2"/>
<stop offset="1" stop-color="#38B0E3"/>
</linearGradient>
</defs>
</svg>
