<svg width="160" height="56" viewBox="0 0 160 56" fill="none" xmlns="http://www.w3.org/2000/svg">
<path d="M18.6374 18.0498C18.6362 17.9522 18.6374 17.8545 18.641 17.7569C18.7622 15.1903 19.9029 12.7781 21.8098 11.0558C24.9503 8.18272 27.9747 8.58503 31.8976 8.58397L41.3406 8.59375L55.7467 8.59521C58.2476 8.5922 61.25 8.50644 63.7079 8.62195C64.3526 8.60051 64.9978 8.60092 65.6424 8.62301C65.6109 8.93458 65.5801 9.38083 65.5115 9.67463C65.27 10.7702 64.7892 12.2222 64.1018 13.1247C63.5667 14.0879 62.0323 15.7187 61.0451 16.1948C60.3962 16.9656 57.4934 17.8223 56.4906 17.9202C54.9578 18.0698 53.2668 18.0371 51.7161 18.035L44.6762 18.0322C36.0353 18.0339 27.2653 17.9479 18.6374 18.0498Z" fill="#3F67FF"/>
<path d="M61.0449 16.1949C61.1331 15.954 61.3262 15.5499 61.4453 15.3103C61.5609 15.0985 62.2443 14.6381 62.2748 14.4908C62.4598 13.6001 62.4217 12.1126 63.8707 13.0165C64.0025 13.0988 63.8228 13.0635 64.1016 13.1249C63.5666 14.0881 62.0321 15.7189 61.0449 16.1949Z" fill="#6857F8"/>
<path d="M63.7078 8.622C64.3524 8.60056 64.9976 8.60097 65.6422 8.62306C65.6107 8.93463 65.5799 9.38088 65.5113 9.67468C64.3168 10.2084 64.2165 9.19289 63.7202 8.77542L63.7078 8.622Z" fill="#6857F8"/>
<path d="M63.6741 10.9885C64.0713 10.9586 64.0931 10.9255 64.5104 10.9609C64.7334 11.1186 64.6547 11.0129 64.7202 11.3117C64.3774 11.5238 63.9991 11.6982 63.6833 11.4092L63.6741 10.9885Z" fill="#6857F8"/>
<path d="M52.6702 20.9797C52.9391 20.9437 53.5727 20.9433 53.87 20.9343C53.6186 22.1249 53.0999 23.7633 52.7584 24.9625L50.7511 32.0356L49.1764 37.6369C48.8612 38.7562 48.4963 40.2032 48.0562 41.2532C47.5459 42.5021 46.7904 43.6368 45.8344 44.5898C43.352 47.0697 40.8454 47.4341 37.5562 47.4381L36.1836 47.43L39.2267 36.4866C39.7573 34.5693 40.4895 31.54 41.2119 29.7775C41.7432 28.4919 42.451 27.2862 43.3149 26.1954C45.6156 23.2817 48.9823 21.4049 52.6702 20.9797Z" fill="#955EF6"/>
<path d="M141 24.0395C145.298 23.4073 149.295 26.3846 149.918 30.684C150.541 34.9842 147.557 38.9728 143.256 39.5883C138.966 40.2012 134.99 37.2267 134.369 32.9389C133.747 28.6519 136.714 24.67 141 24.0395ZM146.219 28.7407C145.11 27.27 143.296 26.5077 141.47 26.7465C138.692 27.1102 136.723 29.6399 137.053 32.4213C137.383 35.2027 139.889 37.2014 142.675 36.9047C144.506 36.7099 146.091 35.5448 146.825 33.8549C147.558 32.1651 147.326 30.212 146.219 28.7407Z" fill="#955EF6"/>
<path d="M87.9769 24.0309C89.8542 24.0559 91.6439 24.8266 92.9515 26.1735C94.7661 28.0696 95.0681 30.2556 95.0257 32.7467L82.766 32.7506C83.3367 36.3536 86.275 38.0772 89.7582 36.7829C90.5285 36.4967 91.1439 35.8419 91.6224 35.1881L91.6781 35.1022C91.9552 34.8984 94.131 34.9949 94.6146 35.0006C93.7537 37.6036 91.8329 39.0179 89.1019 39.4899C81.6739 40.7736 77.4414 32.8803 81.4828 26.9538C82.6371 25.2603 84.5429 24.3805 86.5775 24.0729C87.0005 24.0274 87.5506 24.0215 87.9769 24.0309ZM92.1791 30.5465C91.6964 27.7107 89.9685 26.2159 87.016 26.4352C84.6471 26.8184 83.2343 28.1265 82.8177 30.5573L88.1839 30.5622C89.5052 30.5589 90.8618 30.571 92.1791 30.5465Z" fill="#6857F8"/>
<path d="M111.327 24.0309C113.204 24.0559 114.994 24.8265 116.301 26.1735C118.116 28.0696 118.418 30.2555 118.376 32.7467L106.116 32.7497C106.686 36.3528 109.625 38.0773 113.108 36.7829C113.878 36.4967 114.494 35.8419 114.972 35.1881L115.028 35.1022C115.305 34.8984 117.481 34.9949 117.964 35.0006C117.104 37.6036 115.183 39.0179 112.452 39.4899C105.024 40.7737 100.791 32.8803 104.833 26.9538C105.987 25.2603 107.893 24.3805 109.927 24.0729C110.35 24.0274 110.9 24.0215 111.327 24.0309ZM115.53 30.5465C115.047 27.7106 113.318 26.2159 110.366 26.4352C107.997 26.8184 106.584 28.1265 106.168 30.5573L111.534 30.5622C112.855 30.5589 114.213 30.571 115.53 30.5465Z" fill="#6857F8"/>
<path d="M65.1143 18.7471L80.722 18.7466C80.7432 19.5989 80.7187 20.5695 80.7147 21.4304L74.3736 21.4356C74.3039 25.1743 74.3718 29.139 74.3736 32.8931L74.3786 39.2835L71.4622 39.2794L71.4644 21.4377C69.3644 21.4108 67.2136 21.4346 65.1096 21.4347L65.1143 18.7471Z" fill="#3F67FF"/>
<path d="M32.6887 22.3286C33.0529 21.7559 33.5624 21.1238 34.2689 21.0443C35.6724 20.8864 37.4206 20.9527 38.8493 20.9531L48.3496 20.9629C45.5341 21.8646 43.3792 23.1149 41.5445 25.5228C39.1775 25.5293 36.5685 25.6263 34.2163 25.4168C33.5445 25.3565 33.0517 24.6919 32.6844 24.1738C30.5093 24.2084 27.0336 24.2931 24.884 24.1899C21.6887 24.2689 18.4163 24.1653 15.2144 24.1865C13.8521 24.1956 13.9169 22.401 15.0428 22.3386C15.7374 22.3001 16.6357 22.3244 17.3539 22.3237C18.8315 22.3162 20.3092 22.3222 21.7866 22.3419C25.3634 22.2788 29.0995 22.3272 32.6887 22.3286Z" fill="#6857F8"/>
<path d="M24.884 24.19C21.6887 24.269 18.4163 24.1654 15.2144 24.1866C13.8521 24.1957 13.9169 22.4012 15.0428 22.3387C15.7374 22.3002 16.6357 22.3245 17.3539 22.3238C18.8315 22.3163 20.3092 22.3223 21.7866 22.342C21.7404 22.3581 21.6943 22.3742 21.6481 22.3903C19.6797 22.5922 17.6396 22.3603 15.6627 22.4654C15.4235 22.4781 14.7819 23.1235 14.6657 23.3333C14.5609 23.5128 14.6305 23.6678 14.6898 23.8524C15.1349 24.2716 23.3893 23.9046 24.884 24.19Z" fill="#317FFE"/>
<path d="M34.3534 22.1305C34.7597 21.9875 35.2115 22.0769 35.5328 22.3636C35.8542 22.6503 35.9942 23.0891 35.8984 23.509C35.8024 23.9288 35.4859 24.2633 35.0719 24.3821C34.4573 24.5585 33.8139 24.2143 33.6195 23.6052C33.4251 22.996 33.7502 22.3427 34.3534 22.1305Z" fill="white"/>
<path d="M119.302 24.2955L122.365 24.2874C122.854 25.8912 123.556 27.7654 124.114 29.3632C124.914 31.7028 125.737 34.0335 126.585 36.3552C128.014 32.4308 129.426 28.2586 130.817 24.296L133.843 24.2927C133.598 24.9769 133.327 25.6711 133.07 26.3526L128.213 39.2777L124.913 39.2794C123.039 34.3987 121.053 29.2107 119.302 24.2955Z" fill="#3F67FF"/>
<path d="M29.2646 28.9704C32.6678 28.9402 36.0712 28.9418 39.4743 28.9736C38.8988 30.5486 38.5317 31.8505 38.1079 33.4768C35.5747 33.4516 33.0319 33.5184 30.4977 33.4989C28.9404 33.4866 28.1719 33.5828 27.3181 32.1228L21.6091 32.1244C20.3417 32.1228 10.9127 32.2671 10.4546 32.0103C10.2093 31.8717 10.0439 31.6247 10.0086 31.3451C9.93335 30.7614 10.3618 30.3407 10.9237 30.3285C12.7121 30.2902 14.5112 30.3114 16.3002 30.3106L27.3027 30.3146C27.8238 29.4 28.2333 29.122 29.2646 28.9704Z" fill="#6857F8"/>
<path d="M29.2352 30.0367C29.8669 29.9804 30.4294 30.4345 30.5079 31.0639C30.5865 31.6932 30.1529 32.272 29.5269 32.3731C29.1013 32.4424 28.6721 32.2728 28.4078 31.9321C28.1435 31.5921 28.0863 31.134 28.2587 30.7386C28.4312 30.344 28.8057 30.0742 29.2352 30.0367Z" fill="white"/>
<path d="M98.1087 18.3522L100.962 18.3501L100.961 33.8201C100.963 34.5986 101.071 38.6812 100.921 39.2306L100.747 39.2844L98.0818 39.282L98.0859 25.6419C98.0851 23.244 98.037 20.7385 98.1087 18.3522Z" fill="#955EF6"/>
<path d="M27.0911 36.9465C30.275 36.8486 33.916 36.922 37.1171 36.9285C36.781 38.3706 36.3076 39.9815 35.9171 41.4269L29.464 41.4244C27.5953 41.4244 26.4937 41.832 25.3324 40.1038C24.1524 40.0817 20.507 40.4217 19.7083 39.741C19.5596 39.6146 19.447 39.4345 19.4518 39.2339C19.4582 38.9698 19.5844 38.6975 19.775 38.5149C20.285 38.0274 24.419 38.2492 25.3284 38.2459C25.9043 37.4299 26.096 37.1902 27.0911 36.9465Z" fill="#6857F8"/>
<path d="M27.1978 38.0257C27.831 37.9328 28.4211 38.3665 28.5223 38.9983C28.6236 39.6301 28.1985 40.226 27.5681 40.336C27.1525 40.4086 26.7301 40.2521 26.4626 39.9252C26.1949 39.5991 26.1237 39.1548 26.2759 38.761C26.4282 38.3681 26.7804 38.0869 27.1978 38.0257Z" fill="white"/>
</svg>
