<svg width="160" height="56" viewBox="0 0 160 56" fill="none" xmlns="http://www.w3.org/2000/svg">
<path d="M17.1224 15.9268C21.0017 11.72 25.4632 9.17039 31.1314 8.20728C31.1114 9.64771 31.0985 11.2287 31.1421 12.6643C26.6917 13.3383 21.8836 16.6014 19.2734 20.2223C16.3662 24.2552 15.2671 28.0768 15.3946 32.9943C15.4737 33.4977 15.596 34.6305 15.632 35.1343C15.9248 36.2495 15.9731 36.9958 16.381 38.2051C17.9118 42.7092 21.0043 46.5168 25.0993 48.9392C29.666 51.6227 35.1225 52.3502 40.2326 50.9564C45.0201 49.6977 49.5124 46.3371 52.0069 42.0584C52.8842 40.5625 53.568 38.9612 54.042 37.2927C54.1032 37.0781 54.2872 36.4015 54.307 36.1893C54.3498 36.0123 54.3201 36.0001 54.4312 35.9079C55.5716 35.8387 57.6453 35.8801 58.8266 35.9088C58.5922 37.2141 58.1079 39.397 57.5337 40.6086C57.4928 40.7889 57.4438 40.8914 57.3718 41.058C57.2914 41.2538 56.8546 42.3464 56.7355 42.4447C56.5275 43.0188 55.9265 44.0479 55.597 44.5725C53.8622 47.3638 51.5875 49.7805 48.9067 51.6815C48.4878 51.9817 47.7306 52.5243 47.2604 52.7257C46.4372 53.327 42.2042 55.1678 41.2257 55.2144C38.6126 56.0976 34.5942 56.124 31.8814 55.8379C28.1576 55.3541 24.7812 53.9877 21.6433 51.962C21.1896 52.137 19.6925 52.5375 19.1903 52.6367C18.9979 52.7238 17.2804 53.152 16.9774 53.2315L12.0145 54.5537L13.7606 48.0009C13.9784 47.1944 14.5179 45.4397 14.6437 44.6789C14.5315 44.5278 14.4252 44.3499 14.3275 44.1881C9.59567 36.3408 9.93651 25.9012 15.1836 18.3838C15.7733 17.539 16.4109 16.6734 17.1224 15.9268Z" fill="#ADDB3B"/>
<path d="M17.1223 15.9268C21.0016 11.72 25.4631 9.17039 31.1313 8.20728C31.1113 9.64771 31.0984 11.2287 31.142 12.6643C26.6916 13.3383 21.8835 16.6014 19.2733 20.2223C16.3661 24.2552 15.267 28.0768 15.3945 32.9943C15.0204 32.6963 14.876 31.5221 14.8351 31.0664C14.5181 27.3228 14.9017 23.5529 15.9662 19.9499C16.1475 19.3225 16.3055 18.7816 16.5168 18.1663C16.7331 17.5365 16.8901 16.6503 17.1223 15.9268Z" fill="#84A82A"/>
<path d="M34.2876 23.8209C34.5276 23.779 35.3472 23.7856 35.6079 23.8003C37.7654 23.9358 39.7806 24.9237 41.2095 26.5455C42.4932 27.99 43.3635 30.2198 43.231 32.1285C42.9773 35.7748 38.2471 40.5747 35.6226 42.8921L35.0464 43.3873C32.0623 40.5198 27.8289 36.8026 26.9488 32.5181C26.5996 30.8179 27.5625 28.2553 28.647 26.9078C30.1081 25.0923 31.966 24.1072 34.2876 23.8209ZM34.9361 28.1724C32.839 28.2498 31.2058 30.0208 31.2984 32.1168C31.3911 34.2125 33.1736 35.8317 35.2691 35.7242C37.3435 35.6174 38.9439 33.8575 38.8521 31.7828C38.7606 29.7083 37.0117 28.0959 34.9361 28.1724Z" fill="#ADDB3B"/>
<path d="M36.3243 0.0410156C37.5496 0.0397451 39.5731 0.248271 40.7794 0.510742C49.2801 2.05982 56.7939 6.97876 61.6114 14.1504C64.5234 18.4874 66.3286 23.4717 66.8712 28.667C66.986 29.8066 66.9484 30.8269 67.0001 31.9365C65.5436 31.9573 64.0865 31.9592 62.63 31.9424C62.6638 25.8459 60.6395 19.916 56.8849 15.1123C53.4736 10.7284 48.84 7.41029 43.5372 5.71289C42.074 5.24456 40.5385 4.84114 39.0099 4.66309C39.0009 5.1662 38.9951 5.66965 38.9913 6.17285L39.005 7.14453C39.0079 7.47044 39.0071 7.79605 38.9982 8.11426C38.829 8.07643 38.1242 8.03067 37.9191 8.0127C37.2088 7.95043 36.5035 7.88226 35.7941 7.86426C35.5577 7.85826 35.3207 7.85703 35.0831 7.86426C35.1431 5.6366 35.0069 3.20698 35.1027 1.01367C35.0821 0.678225 35.088 0.336531 35.089 0L36.3243 0.0410156Z" fill="#013A89"/>
<path d="M35.0831 7.86474C36.0338 7.8358 36.972 7.92944 37.9188 8.01245C38.124 8.03042 38.829 8.07658 38.998 8.11441C39.1448 8.2545 39.4738 8.28094 39.6861 8.31924C50.3383 10.2411 58.859 19.9973 59.1028 30.8708C59.1094 31.226 59.1136 31.5812 59.1155 31.9364L51.306 31.945C51.4208 31.3474 50.992 28.7346 50.824 28.0363C51.4406 28.0349 52.1207 28.0486 52.7316 28.0304C53.0846 28.03 53.5792 28.0141 53.9209 28.0298C54.0786 28.0175 54.1633 28.0093 54.3172 27.9759C54.4127 27.7729 54.0329 26.5957 53.9553 26.3428C53.0271 23.2064 51.3224 20.3546 48.9998 18.051C45.3306 14.3327 40.3182 12.249 35.0937 12.2701C35.0907 10.7935 35.0661 9.3448 35.0831 7.86474Z" fill="#013C8C"/>
<path d="M35.0867 15.7627C37.5978 15.8478 39.6691 16.2007 41.9767 17.2917C45.5004 18.9408 48.3065 21.8118 49.8737 25.3721C50.3769 26.5049 50.4493 26.986 50.824 28.0362C50.992 28.7346 51.4208 31.3473 51.3059 31.9449C49.8822 31.9785 48.3018 31.9491 46.8729 31.9424C46.9538 25.7387 41.9221 20.4572 35.7333 20.1528C35.5119 20.1419 35.2893 20.1387 35.0676 20.1352C35.1466 18.8494 35.0472 17.1314 35.0867 15.7627Z" fill="#004997"/>
<path d="M81.68 42.5V19.98H73.52V14.58H96.44V19.98H88.28V42.5H81.68Z" fill="#ADDB3B"/>
<path d="M100.32 42.5V14.58H106.92V37.1H120.44V42.5H100.32Z" fill="url(#paint0_linear_176_269)"/>
<path d="M130.08 42.5L123.04 14.58H129.84L133.8 30.18L135.08 37.46L136.36 30.18L140.32 14.58H147.04L139.96 42.5H130.08Z" fill="#013A89"/>
<defs>
<linearGradient id="paint0_linear_176_269" x1="97" y1="11.8857" x2="123.828" y2="44.9252" gradientUnits="userSpaceOnUse">
<stop stop-color="#84A82A"/>
<stop offset="1" stop-color="#004997"/>
</linearGradient>
</defs>
</svg>
