<svg width="32" height="32" viewBox="0 0 32 32" fill="none" xmlns="http://www.w3.org/2000/svg">
<path fill-rule="evenodd" clip-rule="evenodd" d="M25.5322 3.5H6.47184C4.83213 3.5 3.50226 4.82893 3.50002 6.4697V25.5143C3.49685 26.305 3.80854 27.0645 4.36621 27.6248C4.92387 28.1851 5.68159 28.5 6.47184 28.5H25.5322C26.3217 28.4989 27.0784 28.1835 27.6352 27.6234C28.192 27.0632 28.5031 26.3043 28.5 25.5143V6.4697C28.4977 4.8305 27.1703 3.50221 25.5322 3.5ZM14.2818 21.5066C14.2808 21.7709 14.1745 22.0239 13.9866 22.2096C13.7987 22.3954 13.5447 22.4986 13.2805 22.4965H9.11521C8.57042 22.4943 8.12996 22.0517 8.12996 21.5066V9.10276C8.12996 8.55761 8.57042 8.11506 9.11521 8.11286H13.2805C13.826 8.11505 14.2676 8.55696 14.2698 9.10276L14.2818 21.5066ZM23.8941 15.8116C23.8941 16.0763 23.7882 16.3299 23.6001 16.5159C23.412 16.7019 23.1572 16.8048 22.8928 16.8016H18.7275C18.182 16.7993 17.7404 16.3574 17.7382 15.8116V9.10276C17.7404 8.55696 18.182 8.11505 18.7275 8.11286H22.8928C23.4376 8.11506 23.8781 8.55761 23.8781 9.10276L23.8941 15.8116Z" fill="url(#paint0_linear_170_160)"/>
<defs>
<linearGradient id="paint0_linear_170_160" x1="16.012" y1="28.5" x2="16.012" y2="3.5" gradientUnits="userSpaceOnUse">
<stop stop-color="#0052CC"/>
<stop offset="1" stop-color="#2684FF"/>
</linearGradient>
</defs>
</svg>
